solid basalt
facet normal 0.9659258262890611 -0.25881904510254805 4.4248965727319997e-13
  outer loop
    vertex 307.46899216615697 308.4276079739248 90.45836503014519
    vertex 307.3516928223686 307.9898408632103 89.45836503014594
    vertex 307.46899216615697 308.4276079739231 89.45836503014519
  endloop
endfacet
facet normal 0.9659258262890611 -0.25881904510254805 4.4248965727319997e-13
  outer loop
    vertex 307.3516928223686 307.9898408632103 89.45836503014594
    vertex 307.46899216615697 308.4276079739248 90.45836503014519
    vertex 307.3516928223686 307.98984086321207 90.45836503014594
  endloop
endfacet
facet normal 0.9063077870366594 -0.42261826174067973 7.225139638113072e-13
  outer loop
    vertex 307.6605269303608 308.83835560127807 90.45836503014449
    vertex 307.46899216615697 308.4276079739231 89.45836503014519
    vertex 307.6605269303608 308.83835560127636 89.45836503014448
  endloop
endfacet
facet normal 0.9063077870366594 -0.42261826174067973 7.225139638113072e-13
  outer loop
    vertex 307.46899216615697 308.4276079739231 89.45836503014519
    vertex 307.6605269303608 308.83835560127807 90.45836503014449
    vertex 307.46899216615697 308.4276079739248 90.45836503014519
  endloop
endfacet
facet normal 0.9961946980917511 -0.08715574274759567 1.4900428475186642e-13
  outer loop
    vertex 307.3516928223686 307.98984086321207 90.45836503014594
    vertex 307.31219298020034 307.5383556012763 89.45836503014671
    vertex 307.3516928223686 307.9898408632103 89.45836503014594
  endloop
endfacet
facet normal 0.9961946980917511 -0.08715574274759567 1.4900428475186642e-13
  outer loop
    vertex 307.31219298020034 307.5383556012763 89.45836503014671
    vertex 307.3516928223686 307.98984086321207 90.45836503014594
    vertex 307.31219298020034 307.53835560127806 90.45836503014671
  endloop
endfacet
facet normal 0.2588190451025729 0.9659258262890543 -1.651378123027086e-12
  outer loop
    vertex 309.4607077182663 304.9778554434463 90.45836503015109
    vertex 309.0229406075536 305.095154787233 89.45836503015089
    vertex 309.0229406075536 305.0951547872347 90.45836503015089
  endloop
endfacet
facet normal 0.2588190451025729 0.9659258262890543 -1.651378123027086e-12
  outer loop
    vertex 309.0229406075536 305.095154787233 89.45836503015089
    vertex 309.4607077182663 304.9778554434463 90.45836503015109
    vertex 309.4607077182663 304.9778554434446 89.45836503015109
  endloop
endfacet
facet normal 0.8191520442889804 -0.5735764363510626 9.806048798932668e-13
  outer loop
    vertex 307.920477428091 309.2096033864631 90.45836503014385
    vertex 307.6605269303608 308.83835560127636 89.45836503014448
    vertex 307.920477428091 309.2096033864613 89.45836503014385
  endloop
endfacet
facet normal 0.8191520442889804 -0.5735764363510626 9.806048798932668e-13
  outer loop
    vertex 307.6605269303608 308.83835560127636 89.45836503014448
    vertex 307.920477428091 309.2096033864631 90.45836503014385
    vertex 307.6605269303608 308.83835560127807 90.45836503014449
  endloop
endfacet
facet normal 0.9659258262890601 0.25881904510255116 -4.4248121165397325e-13
  outer loop
    vertex 307.3516928223686 457.9064017438822 90.45836502988963
    vertex 307.46899216615697 457.4686346331677 89.45836502989037
    vertex 307.3516928223686 457.9064017438805 89.45836502988963
  endloop
endfacet
facet normal 0.9659258262890601 0.25881904510255116 -4.4248121165397325e-13
  outer loop
    vertex 307.46899216615697 457.4686346331677 89.45836502989037
    vertex 307.3516928223686 457.9064017438822 90.45836502988963
    vertex 307.46899216615697 457.4686346331694 90.45836502989037
  endloop
endfacet
facet normal 0.9961946980917511 -0.08715574274759513 1.490058088527791e-13
  outer loop
    vertex 307.3516928223686 458.80937226775023 90.45836502988809
    vertex 307.31219298020034 458.3578870058145 89.45836502988885
    vertex 307.3516928223686 458.80937226774853 89.45836502988809
  endloop
endfacet
facet normal 0.9961946980917511 -0.08715574274759513 1.490058088527791e-13
  outer loop
    vertex 307.31219298020034 458.3578870058145 89.45836502988885
    vertex 307.3516928223686 458.80937226775023 90.45836502988809
    vertex 307.31219298020034 458.3578870058162 90.45836502988887
  endloop
endfacet
facet normal 0.5735764363510459 0.8191520442889921 -1.40044890462112e-12
  outer loop
    vertex 308.61219298020035 456.1062209559766 90.45836502989272
    vertex 308.24094519501534 456.36617145370514 89.45836502989226
    vertex 308.24094519501534 456.36617145370684 90.45836502989228
  endloop
endfacet
facet normal 0.5735764363510459 0.8191520442889921 -1.40044890462112e-12
  outer loop
    vertex 308.24094519501534 456.36617145370514 89.45836502989226
    vertex 308.61219298020035 456.1062209559766 90.45836502989272
    vertex 308.61219298020035 456.1062209559749 89.45836502989272
  endloop
endfacet
facet normal 0.7071067811865537 0.7071067811865414 -1.208892688563562e-12
  outer loop
    vertex 307.920477428091 456.6866392206312 90.45836502989172
    vertex 308.24094519501534 456.36617145370514 89.45836502989226
    vertex 307.920477428091 456.6866392206295 89.45836502989172
  endloop
endfacet
facet normal 0.7071067811865537 0.7071067811865414 -1.208892688563562e-12
  outer loop
    vertex 308.24094519501534 456.36617145370514 89.45836502989226
    vertex 307.920477428091 456.6866392206312 90.45836502989172
    vertex 308.24094519501534 456.36617145370684 90.45836502989228
  endloop
endfacet
facet normal 0.9961946980917511 0.08715574274759567 -1.4900428475186642e-13
  outer loop
    vertex 307.31219298020034 458.3578870058162 90.45836502988887
    vertex 307.3516928223686 457.9064017438805 89.45836502988963
    vertex 307.31219298020034 458.3578870058145 89.45836502988885
  endloop
endfacet
facet normal 0.9961946980917511 0.08715574274759567 -1.4900428475186642e-13
  outer loop
    vertex 307.3516928223686 457.9064017438805 89.45836502988963
    vertex 307.31219298020034 458.3578870058162 90.45836502988887
    vertex 307.3516928223686 457.9064017438822 90.45836502988963
  endloop
endfacet
facet normal 0.4226182617406862 0.9063077870366562 -1.549453189373103e-12
  outer loop
    vertex 309.0229406075536 455.91468619177283 90.45836502989305
    vertex 308.61219298020035 456.1062209559749 89.45836502989272
    vertex 308.61219298020035 456.1062209559766 90.45836502989272
  endloop
endfacet
facet normal 0.4226182617406862 0.9063077870366562 -1.549453189373103e-12
  outer loop
    vertex 308.61219298020035 456.1062209559749 89.45836502989272
    vertex 309.0229406075536 455.91468619177283 90.45836502989305
    vertex 309.0229406075536 455.9146861917711 89.45836502989305
  endloop
endfacet
facet normal 0.8191520442889804 0.5735764363510626 -9.80604879893267e-13
  outer loop
    vertex 307.6605269303608 457.05788700581616 90.45836502989108
    vertex 307.920477428091 456.6866392206295 89.45836502989172
    vertex 307.6605269303608 457.05788700581445 89.45836502989108
  endloop
endfacet
facet normal 0.8191520442889804 0.5735764363510626 -9.80604879893267e-13
  outer loop
    vertex 307.920477428091 456.6866392206295 89.45836502989172
    vertex 307.6605269303608 457.05788700581616 90.45836502989108
    vertex 307.920477428091 456.6866392206312 90.45836502989172
  endloop
endfacet
facet normal 0.9063077870366615 0.42261826174067496 -7.225298125033379e-13
  outer loop
    vertex 307.46899216615697 457.4686346331694 90.45836502989037
    vertex 307.6605269303608 457.05788700581445 89.45836502989108
    vertex 307.46899216615697 457.4686346331677 89.45836502989037
  endloop
endfacet
facet normal 0.9063077870366615 0.42261826174067496 -7.225298125033379e-13
  outer loop
    vertex 307.6605269303608 457.05788700581445 89.45836502989108
    vertex 307.46899216615697 457.4686346331694 90.45836502989037
    vertex 307.6605269303608 457.05788700581616 90.45836502989108
  endloop
endfacet
facet normal 0.5735764363510459 -0.8191520442889921 1.40044890462112e-12
  outer loop
    vertex 308.61219298020035 460.60955305565403 89.45836502988502
    vertex 308.24094519501534 460.3496025579255 90.45836502988546
    vertex 308.24094519501534 460.3496025579238 89.45836502988546
  endloop
endfacet
facet normal 0.5735764363510459 -0.8191520442889921 1.40044890462112e-12
  outer loop
    vertex 308.24094519501534 460.3496025579255 90.45836502988546
    vertex 308.61219298020035 460.60955305565403 89.45836502988502
    vertex 308.61219298020035 460.60955305565574 90.458365029885
  endloop
endfacet
facet normal -0.5735764363510459 -0.8191520442889921 1.40044890462112e-12
  outer loop
    vertex 311.5834407653853 460.3496025579238 89.45836502988546
    vertex 311.2121929802003 460.60955305565574 90.458365029885
    vertex 311.2121929802003 460.60955305565403 89.45836502988502
  endloop
endfacet
facet normal -0.5735764363510459 -0.8191520442889921 1.40044890462112e-12
  outer loop
    vertex 311.2121929802003 460.60955305565574 90.458365029885
    vertex 311.5834407653853 460.3496025579238 89.45836502988546
    vertex 311.5834407653853 460.3496025579255 90.45836502988546
  endloop
endfacet
facet normal -0.9659258262890599 -0.2588190451025527 4.4248121165397593e-13
  outer loop
    vertex 312.47269313803207 458.80937226775023 90.45836502988809
    vertex 312.3553937942437 459.2471393784612 89.45836502988735
    vertex 312.47269313803207 458.80937226774853 89.45836502988809
  endloop
endfacet
facet normal -0.9659258262890599 -0.2588190451025527 4.4248121165397593e-13
  outer loop
    vertex 312.3553937942437 459.2471393784612 89.45836502988735
    vertex 312.47269313803207 458.80937226775023 90.45836502988809
    vertex 312.3553937942437 459.2471393784629 90.45836502988735
  endloop
endfacet
facet normal -0.9961946980917424 0.08715574274769396 -1.490049382202656e-13
  outer loop
    vertex 312.47269313803207 457.9064017438822 90.45836502988963
    vertex 312.5121929802003 458.3578870058145 89.45836502988885
    vertex 312.47269313803207 457.9064017438805 89.45836502988963
  endloop
endfacet
facet normal -0.9961946980917424 0.08715574274769396 -1.490049382202656e-13
  outer loop
    vertex 312.5121929802003 458.3578870058145 89.45836502988885
    vertex 312.47269313803207 457.9064017438822 90.45836502988963
    vertex 312.5121929802003 458.3578870058162 90.45836502988887
  endloop
endfacet
facet normal -0.8191520442889804 0.5735764363510626 -9.806048798932666e-13
  outer loop
    vertex 311.90390853230963 456.6866392206312 90.45836502989172
    vertex 312.1638590300399 457.05788700581445 89.45836502989108
    vertex 311.90390853230963 456.6866392206295 89.45836502989172
  endloop
endfacet
facet normal -0.8191520442889804 0.5735764363510626 -9.806048798932666e-13
  outer loop
    vertex 312.1638590300399 457.05788700581445 89.45836502989108
    vertex 311.90390853230963 456.6866392206312 90.45836502989172
    vertex 312.1638590300399 457.05788700581616 90.45836502989108
  endloop
endfacet
facet normal -0.9063077870366603 0.42261826174067735 -7.225139638113031e-13
  outer loop
    vertex 312.1638590300399 457.05788700581616 90.45836502989108
    vertex 312.3553937942437 457.4686346331677 89.45836502989037
    vertex 312.1638590300399 457.05788700581445 89.45836502989108
  endloop
endfacet
facet normal -0.9063077870366603 0.42261826174067735 -7.225139638113031e-13
  outer loop
    vertex 312.3553937942437 457.4686346331677 89.45836502989037
    vertex 312.1638590300399 457.05788700581616 90.45836502989108
    vertex 312.3553937942437 457.4686346331694 90.45836502989037
  endloop
endfacet
facet normal 0.42261826174068634 -0.9063077870366563 1.5494531893731035e-12
  outer loop
    vertex 309.0229406075536 460.8010878198578 89.45836502988469
    vertex 308.61219298020035 460.60955305565574 90.458365029885
    vertex 308.61219298020035 460.60955305565403 89.45836502988502
  endloop
endfacet
facet normal 0.42261826174068634 -0.9063077870366563 1.5494531893731035e-12
  outer loop
    vertex 308.61219298020035 460.60955305565574 90.458365029885
    vertex 309.0229406075536 460.8010878198578 89.45836502988469
    vertex 309.0229406075536 460.8010878198595 90.45836502988467
  endloop
endfacet
facet normal -0.9659258262890601 0.25881904510255116 -4.4248965727320527e-13
  outer loop
    vertex 312.3553937942437 457.4686346331694 90.45836502989037
    vertex 312.47269313803207 457.9064017438805 89.45836502988963
    vertex 312.3553937942437 457.4686346331677 89.45836502989037
  endloop
endfacet
facet normal -0.9659258262890601 0.25881904510255116 -4.4248965727320527e-13
  outer loop
    vertex 312.47269313803207 457.9064017438805 89.45836502988963
    vertex 312.3553937942437 457.4686346331694 90.45836502989037
    vertex 312.47269313803207 457.9064017438822 90.45836502988963
  endloop
endfacet
facet normal -0.4226182617407244 -0.9063077870366385 1.549453189373073e-12
  outer loop
    vertex 311.2121929802003 460.60955305565403 89.45836502988502
    vertex 310.8014453528471 460.8010878198595 90.45836502988467
    vertex 310.8014453528471 460.8010878198578 89.45836502988469
  endloop
endfacet
facet normal -0.4226182617407244 -0.9063077870366385 1.549453189373073e-12
  outer loop
    vertex 310.8014453528471 460.8010878198595 90.45836502988467
    vertex 311.2121929802003 460.60955305565403 89.45836502988502
    vertex 311.2121929802003 460.60955305565574 90.458365029885
  endloop
endfacet
facet normal -0.707106781186557 0.7071067811865381 -1.2088926885635566e-12
  outer loop
    vertex 311.5834407653853 456.36617145370684 90.45836502989228
    vertex 311.90390853230963 456.6866392206295 89.45836502989172
    vertex 311.5834407653853 456.36617145370514 89.45836502989226
  endloop
endfacet
facet normal -0.707106781186557 0.7071067811865381 -1.2088926885635566e-12
  outer loop
    vertex 311.90390853230963 456.6866392206295 89.45836502989172
    vertex 311.5834407653853 456.36617145370684 90.45836502989228
    vertex 311.90390853230963 456.6866392206312 90.45836502989172
  endloop
endfacet
facet normal -0.5735764363510416 0.8191520442889949 -1.4004489046211246e-12
  outer loop
    vertex 311.5834407653853 456.36617145370684 90.45836502989228
    vertex 311.2121929802003 456.1062209559749 89.45836502989272
    vertex 311.2121929802003 456.1062209559766 90.45836502989272
  endloop
endfacet
facet normal -0.5735764363510416 0.8191520442889949 -1.4004489046211246e-12
  outer loop
    vertex 311.2121929802003 456.1062209559749 89.45836502989272
    vertex 311.5834407653853 456.36617145370684 90.45836502989228
    vertex 311.5834407653853 456.36617145370514 89.45836502989226
  endloop
endfacet
facet normal 0.7071067811865537 -0.7071067811865414 1.208892688563562e-12
  outer loop
    vertex 308.24094519501534 460.3496025579255 90.45836502988546
    vertex 307.920477428091 460.0291347909994 89.458365029886
    vertex 308.24094519501534 460.3496025579238 89.45836502988546
  endloop
endfacet
facet normal 0.7071067811865537 -0.7071067811865414 1.208892688563562e-12
  outer loop
    vertex 307.920477428091 460.0291347909994 89.458365029886
    vertex 308.24094519501534 460.3496025579255 90.45836502988546
    vertex 307.920477428091 460.0291347910011 90.458365029886
  endloop
endfacet
facet normal 0.9659258262890599 -0.2588190451025527 4.4248965727320795e-13
  outer loop
    vertex 307.46899216615697 459.2471393784629 90.45836502988735
    vertex 307.3516928223686 458.80937226774853 89.45836502988809
    vertex 307.46899216615697 459.2471393784612 89.45836502988735
  endloop
endfacet
facet normal 0.9659258262890599 -0.2588190451025527 4.4248965727320795e-13
  outer loop
    vertex 307.3516928223686 458.80937226774853 89.45836502988809
    vertex 307.46899216615697 459.2471393784629 90.45836502988735
    vertex 307.3516928223686 458.80937226775023 90.45836502988809
  endloop
endfacet
facet normal -0.08715574274765742 -0.9961946980917458 1.7031267680505994e-12
  outer loop
    vertex 310.3636782421343 460.91838716364623 89.45836502988448
    vertex 309.9121929802003 460.9578870058162 90.45836502988442
    vertex 309.9121929802003 460.9578870058144 89.45836502988442
  endloop
endfacet
facet normal -0.08715574274765742 -0.9961946980917458 1.7031267680505994e-12
  outer loop
    vertex 309.9121929802003 460.9578870058162 90.45836502988442
    vertex 310.3636782421343 460.91838716364623 89.45836502988448
    vertex 310.3636782421343 460.91838716364794 90.45836502988449
  endloop
endfacet
facet normal -0.9063077870366615 -0.42261826174067507 7.225298125033383e-13
  outer loop
    vertex 312.3553937942437 459.2471393784629 90.45836502988735
    vertex 312.1638590300399 459.6578870058145 89.45836502988664
    vertex 312.3553937942437 459.2471393784612 89.45836502988735
  endloop
endfacet
facet normal -0.9063077870366615 -0.42261826174067507 7.225298125033383e-13
  outer loop
    vertex 312.1638590300399 459.6578870058145 89.45836502988664
    vertex 312.3553937942437 459.2471393784629 90.45836502988735
    vertex 312.1638590300399 459.6578870058162 90.45836502988665
  endloop
endfacet
facet normal 0.8191520442889804 -0.5735764363510626 9.806048798932666e-13
  outer loop
    vertex 307.920477428091 460.0291347910011 90.458365029886
    vertex 307.6605269303608 459.6578870058145 89.45836502988664
    vertex 307.920477428091 460.0291347909994 89.458365029886
  endloop
endfacet
facet normal 0.8191520442889804 -0.5735764363510626 9.806048798932666e-13
  outer loop
    vertex 307.6605269303608 459.6578870058145 89.45836502988664
    vertex 307.920477428091 460.0291347910011 90.458365029886
    vertex 307.6605269303608 459.6578870058162 90.45836502988665
  endloop
endfacet
facet normal 0.2588190451025439 -0.9659258262890622 1.6513823458367155e-12
  outer loop
    vertex 309.4607077182663 460.91838716364623 89.45836502988448
    vertex 309.0229406075536 460.8010878198595 90.45836502988467
    vertex 309.0229406075536 460.8010878198578 89.45836502988469
  endloop
endfacet
facet normal 0.2588190451025439 -0.9659258262890622 1.6513823458367155e-12
  outer loop
    vertex 309.0229406075536 460.8010878198595 90.45836502988467
    vertex 309.4607077182663 460.91838716364623 89.45836502988448
    vertex 309.4607077182663 460.91838716364794 90.45836502988449
  endloop
endfacet
facet normal -0.9961946980917424 -0.08715574274769396 1.4900363128380328e-13
  outer loop
    vertex 312.5121929802003 458.3578870058162 90.45836502988887
    vertex 312.47269313803207 458.80937226774853 89.45836502988809
    vertex 312.5121929802003 458.3578870058145 89.45836502988885
  endloop
endfacet
facet normal -0.9961946980917424 -0.08715574274769396 1.4900363128380328e-13
  outer loop
    vertex 312.47269313803207 458.80937226774853 89.45836502988809
    vertex 312.5121929802003 458.3578870058162 90.45836502988887
    vertex 312.47269313803207 458.80937226775023 90.45836502988809
  endloop
endfacet
facet normal -0.7071067811865537 -0.7071067811865414 1.208892688563562e-12
  outer loop
    vertex 311.90390853230963 460.0291347910011 90.458365029886
    vertex 311.5834407653853 460.3496025579238 89.45836502988546
    vertex 311.90390853230963 460.0291347909994 89.458365029886
  endloop
endfacet
facet normal -0.7071067811865537 -0.7071067811865414 1.208892688563562e-12
  outer loop
    vertex 311.5834407653853 460.3496025579238 89.45836502988546
    vertex 311.90390853230963 460.0291347910011 90.458365029886
    vertex 311.5834407653853 460.3496025579255 90.45836502988546
  endloop
endfacet
facet normal 0.08715574274765742 -0.9961946980917458 1.7031267680505994e-12
  outer loop
    vertex 309.9121929802003 460.9578870058144 89.45836502988442
    vertex 309.4607077182663 460.91838716364794 90.45836502988449
    vertex 309.4607077182663 460.91838716364623 89.45836502988448
  endloop
endfacet
facet normal 0.08715574274765742 -0.9961946980917458 1.7031267680505994e-12
  outer loop
    vertex 309.4607077182663 460.91838716364794 90.45836502988449
    vertex 309.9121929802003 460.9578870058144 89.45836502988442
    vertex 309.9121929802003 460.9578870058162 90.45836502988442
  endloop
endfacet
facet normal -0.8191520442889804 -0.5735764363510626 9.80604879893267e-13
  outer loop
    vertex 312.1638590300399 459.6578870058162 90.45836502988665
    vertex 311.90390853230963 460.0291347909994 89.458365029886
    vertex 312.1638590300399 459.6578870058145 89.45836502988664
  endloop
endfacet
facet normal -0.8191520442889804 -0.5735764363510626 9.80604879893267e-13
  outer loop
    vertex 311.90390853230963 460.0291347909994 89.458365029886
    vertex 312.1638590300399 459.6578870058162 90.45836502988665
    vertex 311.90390853230963 460.0291347910011 90.458365029886
  endloop
endfacet
facet normal 0.9063077870366615 -0.42261826174067507 7.225139638112992e-13
  outer loop
    vertex 307.6605269303608 459.6578870058162 90.45836502988665
    vertex 307.46899216615697 459.2471393784612 89.45836502988735
    vertex 307.6605269303608 459.6578870058145 89.45836502988664
  endloop
endfacet
facet normal 0.9063077870366615 -0.42261826174067507 7.225139638112992e-13
  outer loop
    vertex 307.46899216615697 459.2471393784612 89.45836502988735
    vertex 307.6605269303608 459.6578870058162 90.45836502988665
    vertex 307.46899216615697 459.2471393784629 90.45836502988735
  endloop
endfacet
facet normal -0.25881904510249415 -0.9659258262890756 1.6513823458367385e-12
  outer loop
    vertex 310.8014453528471 460.8010878198578 89.45836502988469
    vertex 310.3636782421343 460.91838716364794 90.45836502988449
    vertex 310.3636782421343 460.91838716364623 89.45836502988448
  endloop
endfacet
facet normal -0.25881904510249415 -0.9659258262890756 1.6513823458367385e-12
  outer loop
    vertex 310.3636782421343 460.91838716364794 90.45836502988449
    vertex 310.8014453528471 460.8010878198578 89.45836502988469
    vertex 310.8014453528471 460.8010878198595 90.45836502988467
  endloop
endfacet
facet normal 0.4226182617406607 0.906307787036668 -1.549445265027104e-12
  outer loop
    vertex 309.0229406075536 305.0951547872347 90.45836503015089
    vertex 308.61219298020035 305.2866895514368 89.45836503015056
    vertex 308.61219298020035 305.2866895514385 90.45836503015056
  endloop
endfacet
facet normal 0.4226182617406607 0.906307787036668 -1.549445265027104e-12
  outer loop
    vertex 308.61219298020035 305.2866895514368 89.45836503015056
    vertex 309.0229406075536 305.0951547872347 90.45836503015089
    vertex 309.0229406075536 305.095154787233 89.45836503015089
  endloop
endfacet
facet normal 0.5735764363510626 0.8191520442889804 -1.4004489046210998e-12
  outer loop
    vertex 308.61219298020035 305.2866895514385 90.45836503015056
    vertex 308.24094519501534 305.546640049167 89.4583650301501
    vertex 308.24094519501534 305.54664004916873 90.4583650301501
  endloop
endfacet
facet normal 0.5735764363510626 0.8191520442889804 -1.4004489046210998e-12
  outer loop
    vertex 308.24094519501534 305.546640049167 89.4583650301501
    vertex 308.61219298020035 305.2866895514385 90.45836503015056
    vertex 308.61219298020035 305.2866895514368 89.45836503015056
  endloop
endfacet
facet normal 0.7071067811865476 0.7071067811865476 -1.2088926885635728e-12
  outer loop
    vertex 307.920477428091 305.86710781609304 90.45836503014957
    vertex 308.24094519501534 305.546640049167 89.4583650301501
    vertex 307.920477428091 305.86710781609133 89.45836503014957
  endloop
endfacet
facet normal 0.7071067811865476 0.7071067811865476 -1.2088926885635728e-12
  outer loop
    vertex 308.24094519501534 305.546640049167 89.4583650301501
    vertex 307.920477428091 305.86710781609304 90.45836503014957
    vertex 308.24094519501534 305.54664004916873 90.4583650301501
  endloop
endfacet
facet normal 0.0 -1.7096324356202786e-12 -1.0
  outer loop
    vertex 317.9998387082076 466.4578870058145 89.4577029708297
    vertex 311.5834407653853 460.3496025579238 89.45836502988546
    vertex 303.9998387082077 466.4578870058145 89.4577029708297
  endloop
endfacet
facet normal 0.0 -1.7096324356202786e-12 -1.0
  outer loop
    vertex 311.5834407653853 460.3496025579238 89.45836502988546
    vertex 317.9998387082076 466.4578870058145 89.4577029708297
    vertex 311.90390853230963 460.0291347909994 89.458365029886
  endloop
endfacet
facet normal 0.0 -1.7096324356202786e-12 -1.0
  outer loop
    vertex 311.90390853230963 460.0291347909994 89.458365029886
    vertex 317.9998387082076 466.4578870058145 89.4577029708297
    vertex 312.1638590300399 459.6578870058145 89.45836502988664
  endloop
endfacet
facet normal 0.0 -1.7096324356202786e-12 -1.0
  outer loop
    vertex 312.1638590300399 459.6578870058145 89.45836502988664
    vertex 317.9998387082076 466.4578870058145 89.4577029708297
    vertex 312.3553937942437 459.2471393784612 89.45836502988735
  endloop
endfacet
facet normal 0.0 -1.7096324356202786e-12 -1.0
  outer loop
    vertex 312.3553937942437 459.2471393784612 89.45836502988735
    vertex 317.9998387082076 466.4578870058145 89.4577029708297
    vertex 312.47269313803207 458.80937226774853 89.45836502988809
  endloop
endfacet
facet normal 0.0 -1.7096324356202786e-12 -1.0
  outer loop
    vertex 312.47269313803207 458.80937226774853 89.45836502988809
    vertex 317.9998387082076 466.4578870058145 89.4577029708297
    vertex 312.5121929802003 458.3578870058145 89.45836502988885
  endloop
endfacet
facet normal 0.0 -1.7096324356202786e-12 -1.0
  outer loop
    vertex 312.5121929802003 458.3578870058145 89.45836502988885
    vertex 317.9998387082076 466.4578870058145 89.4577029708297
    vertex 317.9998387082076 301.53835560127635 89.45770297111164
  endloop
endfacet
facet normal 0.0 -1.7096324356202786e-12 -1.0
  outer loop
    vertex 303.9998387082077 466.4578870058145 89.4577029708297
    vertex 311.5834407653853 460.3496025579238 89.45836502988546
    vertex 311.2121929802003 460.60955305565403 89.45836502988502
  endloop
endfacet
facet normal 0.0 -1.7096324356202786e-12 -1.0
  outer loop
    vertex 303.9998387082077 466.4578870058145 89.4577029708297
    vertex 311.2121929802003 460.60955305565403 89.45836502988502
    vertex 310.8014453528471 460.8010878198578 89.45836502988469
  endloop
endfacet
facet normal 0.0 -1.7096324356202786e-12 -1.0
  outer loop
    vertex 303.9998387082077 466.4578870058145 89.4577029708297
    vertex 310.8014453528471 460.8010878198578 89.45836502988469
    vertex 310.3636782421343 460.91838716364623 89.45836502988448
  endloop
endfacet
facet normal 0.0 -1.7096324356202786e-12 -1.0
  outer loop
    vertex 303.9998387082077 466.4578870058145 89.4577029708297
    vertex 310.3636782421343 460.91838716364623 89.45836502988448
    vertex 309.9121929802003 460.9578870058144 89.45836502988442
  endloop
endfacet
facet normal 0.0 -1.7096324356202786e-12 -1.0
  outer loop
    vertex 312.5121929802003 458.3578870058145 89.45836502988885
    vertex 317.9998387082076 301.53835560127635 89.45770297111164
    vertex 312.47269313803207 457.9064017438805 89.45836502988963
  endloop
endfacet
facet normal 0.0 -1.7096324356202786e-12 -1.0
  outer loop
    vertex 312.47269313803207 457.9064017438805 89.45836502988963
    vertex 317.9998387082076 301.53835560127635 89.45770297111164
    vertex 312.3553937942437 457.4686346331677 89.45836502989037
  endloop
endfacet
facet normal 0.0 -1.7096324356202786e-12 -1.0
  outer loop
    vertex 312.3553937942437 457.4686346331677 89.45836502989037
    vertex 317.9998387082076 301.53835560127635 89.45770297111164
    vertex 312.1638590300399 457.05788700581445 89.45836502989108
  endloop
endfacet
facet normal 0.0 -1.7096324356202786e-12 -1.0
  outer loop
    vertex 312.1638590300399 457.05788700581445 89.45836502989108
    vertex 317.9998387082076 301.53835560127635 89.45770297111164
    vertex 311.90390853230963 456.6866392206295 89.45836502989172
  endloop
endfacet
facet normal 0.0 -1.7096324356202786e-12 -1.0
  outer loop
    vertex 311.90390853230963 456.6866392206295 89.45836502989172
    vertex 317.9998387082076 301.53835560127635 89.45770297111164
    vertex 311.5834407653853 456.36617145370514 89.45836502989226
  endloop
endfacet
facet normal 0.0 -1.7096324356202786e-12 -1.0
  outer loop
    vertex 311.5834407653853 456.36617145370514 89.45836502989226
    vertex 317.9998387082076 301.53835560127635 89.45770297111164
    vertex 311.2121929802003 456.1062209559749 89.45836502989272
  endloop
endfacet
facet normal 0.0 -1.7096324356202786e-12 -1.0
  outer loop
    vertex 311.2121929802003 456.1062209559749 89.45836502989272
    vertex 317.9998387082076 301.53835560127635 89.45770297111164
    vertex 310.8014453528471 455.9146861917711 89.45836502989305
  endloop
endfacet
facet normal 0.0 -1.7096324356202786e-12 -1.0
  outer loop
    vertex 310.8014453528471 455.9146861917711 89.45836502989305
    vertex 317.9998387082076 301.53835560127635 89.45770297111164
    vertex 310.3636782421343 455.7973868479827 89.45836502989324
  endloop
endfacet
facet normal 0.0 -1.7096324356202786e-12 -1.0
  outer loop
    vertex 310.3636782421343 455.7973868479827 89.45836502989324
    vertex 317.9998387082076 301.53835560127635 89.45770297111164
    vertex 309.9121929802003 455.75788700581444 89.4583650298933
  endloop
endfacet
facet normal 0.0 -1.7096324356202786e-12 -1.0
  outer loop
    vertex 309.9121929802003 455.75788700581444 89.4583650298933
    vertex 317.9998387082076 301.53835560127635 89.45770297111164
    vertex 311.90390853230963 309.2096033864613 89.45836503014385
  endloop
endfacet
facet normal 0.0 -1.7096324356202786e-12 -1.0
  outer loop
    vertex 309.9121929802003 455.75788700581444 89.4583650298933
    vertex 311.90390853230963 309.2096033864613 89.45836503014385
    vertex 311.5834407653853 309.5300711533857 89.45836503014331
  endloop
endfacet
facet normal 0.0 -1.7096324356202786e-12 -1.0
  outer loop
    vertex 309.9121929802003 455.75788700581444 89.4583650298933
    vertex 311.5834407653853 309.5300711533857 89.45836503014331
    vertex 311.2121929802003 309.79002165111586 89.45836503014286
  endloop
endfacet
facet normal 0.0 -1.7096324356202786e-12 -1.0
  outer loop
    vertex 309.9121929802003 455.75788700581444 89.4583650298933
    vertex 311.2121929802003 309.79002165111586 89.45836503014286
    vertex 310.8014453528471 309.9815564153197 89.45836503014253
  endloop
endfacet
facet normal 0.0 -1.7096324356202786e-12 -1.0
  outer loop
    vertex 309.9121929802003 455.75788700581444 89.4583650298933
    vertex 310.8014453528471 309.9815564153197 89.45836503014253
    vertex 310.3636782421343 310.09885575910806 89.45836503014233
  endloop
endfacet
facet normal 0.0 -1.7096324356202786e-12 -1.0
  outer loop
    vertex 309.9121929802003 455.75788700581444 89.4583650298933
    vertex 310.3636782421343 310.09885575910806 89.45836503014233
    vertex 309.9121929802003 310.1383556012764 89.45836503014226
  endloop
endfacet
facet normal 0.0 -1.7096324356202786e-12 -1.0
  outer loop
    vertex 311.90390853230963 309.2096033864613 89.45836503014385
    vertex 317.9998387082076 301.53835560127635 89.45770297111164
    vertex 312.1638590300399 308.83835560127636 89.45836503014448
  endloop
endfacet
facet normal 0.0 -1.7096324356202786e-12 -1.0
  outer loop
    vertex 312.1638590300399 308.83835560127636 89.45836503014448
    vertex 317.9998387082076 301.53835560127635 89.45770297111164
    vertex 312.3553937942437 308.4276079739231 89.45836503014519
  endloop
endfacet
facet normal 0.0 -1.7096324356202786e-12 -1.0
  outer loop
    vertex 312.3553937942437 308.4276079739231 89.45836503014519
    vertex 317.9998387082076 301.53835560127635 89.45770297111164
    vertex 312.47269313803207 307.9898408632103 89.45836503014594
  endloop
endfacet
facet normal 0.0 -1.7096324356202786e-12 -1.0
  outer loop
    vertex 312.47269313803207 307.9898408632103 89.45836503014594
    vertex 317.9998387082076 301.53835560127635 89.45770297111164
    vertex 312.5121929802003 307.5383556012763 89.45836503014671
  endloop
endfacet
facet normal 0.0 -1.7096324356202786e-12 -1.0
  outer loop
    vertex 312.5121929802003 307.5383556012763 89.45836503014671
    vertex 317.9998387082076 301.53835560127635 89.45770297111164
    vertex 312.47269313803207 307.0868703393423 89.45836503014748
  endloop
endfacet
facet normal 0.0 -1.7096324356202786e-12 -1.0
  outer loop
    vertex 312.47269313803207 307.0868703393423 89.45836503014748
    vertex 317.9998387082076 301.53835560127635 89.45770297111164
    vertex 312.3553937942437 306.6491032286296 89.45836503014823
  endloop
endfacet
facet normal 0.0 -1.7096324356202786e-12 -1.0
  outer loop
    vertex 312.3553937942437 306.6491032286296 89.45836503014823
    vertex 317.9998387082076 301.53835560127635 89.45770297111164
    vertex 312.1638590300399 306.23835560127634 89.45836503014893
  endloop
endfacet
facet normal 0.0 -1.7096324356202786e-12 -1.0
  outer loop
    vertex 312.1638590300399 306.23835560127634 89.45836503014893
    vertex 317.9998387082076 301.53835560127635 89.45770297111164
    vertex 311.90390853230963 305.86710781609133 89.45836503014957
  endloop
endfacet
facet normal 0.0 -1.7096324356202786e-12 -1.0
  outer loop
    vertex 311.90390853230963 305.86710781609133 89.45836503014957
    vertex 317.9998387082076 301.53835560127635 89.45770297111164
    vertex 311.5834407653853 305.546640049167 89.4583650301501
  endloop
endfacet
facet normal 0.0 -1.7096324356202786e-12 -1.0
  outer loop
    vertex 311.5834407653853 305.546640049167 89.4583650301501
    vertex 317.9998387082076 301.53835560127635 89.45770297111164
    vertex 311.2121929802003 305.2866895514368 89.45836503015056
  endloop
endfacet
facet normal 0.0 -1.7096324356202786e-12 -1.0
  outer loop
    vertex 311.2121929802003 305.2866895514368 89.45836503015056
    vertex 317.9998387082076 301.53835560127635 89.45770297111164
    vertex 310.8014453528471 305.095154787233 89.45836503015089
  endloop
endfacet
facet normal 0.0 -1.7096324356202786e-12 -1.0
  outer loop
    vertex 310.8014453528471 305.095154787233 89.45836503015089
    vertex 317.9998387082076 301.53835560127635 89.45770297111164
    vertex 310.3636782421343 304.9778554434446 89.45836503015109
  endloop
endfacet
facet normal 0.0 -1.7096324356202786e-12 -1.0
  outer loop
    vertex 310.3636782421343 304.9778554434446 89.45836503015109
    vertex 317.9998387082076 301.53835560127635 89.45770297111164
    vertex 309.9121929802003 304.9383556012764 89.45836503015114
  endloop
endfacet
facet normal 0.0 -1.7096324356202786e-12 -1.0
  outer loop
    vertex 303.9998387082077 466.4578870058145 89.4577029708297
    vertex 307.31219298020034 458.3578870058145 89.45836502988885
    vertex 303.9998387082077 301.53835560127635 89.45770297111164
  endloop
endfacet
facet normal 0.0 -1.7096324356202786e-12 -1.0
  outer loop
    vertex 307.31219298020034 458.3578870058145 89.45836502988885
    vertex 303.9998387082077 466.4578870058145 89.4577029708297
    vertex 307.3516928223686 458.80937226774853 89.45836502988809
  endloop
endfacet
facet normal 0.0 -1.7096324356202786e-12 -1.0
  outer loop
    vertex 307.3516928223686 458.80937226774853 89.45836502988809
    vertex 303.9998387082077 466.4578870058145 89.4577029708297
    vertex 307.46899216615697 459.2471393784612 89.45836502988735
  endloop
endfacet
facet normal 0.0 -1.7096324356202786e-12 -1.0
  outer loop
    vertex 307.46899216615697 459.2471393784612 89.45836502988735
    vertex 303.9998387082077 466.4578870058145 89.4577029708297
    vertex 307.6605269303608 459.6578870058145 89.45836502988664
  endloop
endfacet
facet normal 0.0 -1.7096324356202786e-12 -1.0
  outer loop
    vertex 307.6605269303608 459.6578870058145 89.45836502988664
    vertex 303.9998387082077 466.4578870058145 89.4577029708297
    vertex 307.920477428091 460.0291347909994 89.458365029886
  endloop
endfacet
facet normal 0.0 -1.7096324356202786e-12 -1.0
  outer loop
    vertex 307.920477428091 460.0291347909994 89.458365029886
    vertex 303.9998387082077 466.4578870058145 89.4577029708297
    vertex 308.24094519501534 460.3496025579238 89.45836502988546
  endloop
endfacet
facet normal 0.0 -1.7096324356202786e-12 -1.0
  outer loop
    vertex 308.24094519501534 460.3496025579238 89.45836502988546
    vertex 303.9998387082077 466.4578870058145 89.4577029708297
    vertex 308.61219298020035 460.60955305565403 89.45836502988502
  endloop
endfacet
facet normal 0.0 -1.7096324356202786e-12 -1.0
  outer loop
    vertex 308.61219298020035 460.60955305565403 89.45836502988502
    vertex 303.9998387082077 466.4578870058145 89.4577029708297
    vertex 309.0229406075536 460.8010878198578 89.45836502988469
  endloop
endfacet
facet normal 0.0 -1.7096324356202786e-12 -1.0
  outer loop
    vertex 309.0229406075536 460.8010878198578 89.45836502988469
    vertex 303.9998387082077 466.4578870058145 89.4577029708297
    vertex 309.4607077182663 460.91838716364623 89.45836502988448
  endloop
endfacet
facet normal 0.0 -1.7096324356202786e-12 -1.0
  outer loop
    vertex 309.4607077182663 460.91838716364623 89.45836502988448
    vertex 303.9998387082077 466.4578870058145 89.4577029708297
    vertex 309.9121929802003 460.9578870058144 89.45836502988442
  endloop
endfacet
facet normal 0.0 -1.7096324356202786e-12 -1.0
  outer loop
    vertex 303.9998387082077 301.53835560127635 89.45770297111164
    vertex 307.31219298020034 458.3578870058145 89.45836502988885
    vertex 307.3516928223686 457.9064017438805 89.45836502988963
  endloop
endfacet
facet normal 0.0 -1.7096324356202786e-12 -1.0
  outer loop
    vertex 303.9998387082077 301.53835560127635 89.45770297111164
    vertex 307.3516928223686 457.9064017438805 89.45836502988963
    vertex 307.46899216615697 457.4686346331677 89.45836502989037
  endloop
endfacet
facet normal 0.0 -1.7096324356202786e-12 -1.0
  outer loop
    vertex 303.9998387082077 301.53835560127635 89.45770297111164
    vertex 307.46899216615697 457.4686346331677 89.45836502989037
    vertex 307.6605269303608 457.05788700581445 89.45836502989108
  endloop
endfacet
facet normal 0.0 -1.7096324356202786e-12 -1.0
  outer loop
    vertex 303.9998387082077 301.53835560127635 89.45770297111164
    vertex 307.6605269303608 457.05788700581445 89.45836502989108
    vertex 307.920477428091 456.6866392206295 89.45836502989172
  endloop
endfacet
facet normal 0.0 -1.7096324356202786e-12 -1.0
  outer loop
    vertex 303.9998387082077 301.53835560127635 89.45770297111164
    vertex 307.920477428091 456.6866392206295 89.45836502989172
    vertex 308.24094519501534 456.36617145370514 89.45836502989226
  endloop
endfacet
facet normal 0.0 -1.7096324356202786e-12 -1.0
  outer loop
    vertex 303.9998387082077 301.53835560127635 89.45770297111164
    vertex 308.24094519501534 456.36617145370514 89.45836502989226
    vertex 308.61219298020035 456.1062209559749 89.45836502989272
  endloop
endfacet
facet normal 0.0 -1.7096324356202786e-12 -1.0
  outer loop
    vertex 303.9998387082077 301.53835560127635 89.45770297111164
    vertex 308.61219298020035 456.1062209559749 89.45836502989272
    vertex 309.0229406075536 455.9146861917711 89.45836502989305
  endloop
endfacet
facet normal 0.0 -1.7096324356202786e-12 -1.0
  outer loop
    vertex 303.9998387082077 301.53835560127635 89.45770297111164
    vertex 309.0229406075536 455.9146861917711 89.45836502989305
    vertex 309.4607077182663 455.7973868479827 89.45836502989324
  endloop
endfacet
facet normal 0.0 -1.7096324356202786e-12 -1.0
  outer loop
    vertex 303.9998387082077 301.53835560127635 89.45770297111164
    vertex 309.4607077182663 455.7973868479827 89.45836502989324
    vertex 309.9121929802003 455.75788700581444 89.4583650298933
  endloop
endfacet
facet normal 0.0 -1.7096324356202786e-12 -1.0
  outer loop
    vertex 303.9998387082077 301.53835560127635 89.45770297111164
    vertex 309.9121929802003 455.75788700581444 89.4583650298933
    vertex 307.6605269303608 308.83835560127636 89.45836503014448
  endloop
endfacet
facet normal 0.0 -1.7096324356202786e-12 -1.0
  outer loop
    vertex 307.6605269303608 308.83835560127636 89.45836503014448
    vertex 309.9121929802003 455.75788700581444 89.4583650298933
    vertex 307.920477428091 309.2096033864613 89.45836503014385
  endloop
endfacet
facet normal 0.0 -1.7096324356202786e-12 -1.0
  outer loop
    vertex 307.920477428091 309.2096033864613 89.45836503014385
    vertex 309.9121929802003 455.75788700581444 89.4583650298933
    vertex 308.24094519501534 309.5300711533857 89.45836503014331
  endloop
endfacet
facet normal 0.0 -1.7096324356202786e-12 -1.0
  outer loop
    vertex 308.24094519501534 309.5300711533857 89.45836503014331
    vertex 309.9121929802003 455.75788700581444 89.4583650298933
    vertex 308.61219298020035 309.79002165111586 89.45836503014286
  endloop
endfacet
facet normal 0.0 -1.7096324356202786e-12 -1.0
  outer loop
    vertex 308.61219298020035 309.79002165111586 89.45836503014286
    vertex 309.9121929802003 455.75788700581444 89.4583650298933
    vertex 309.0229406075536 309.9815564153197 89.45836503014253
  endloop
endfacet
facet normal 0.0 -1.7096324356202786e-12 -1.0
  outer loop
    vertex 309.0229406075536 309.9815564153197 89.45836503014253
    vertex 309.9121929802003 455.75788700581444 89.4583650298933
    vertex 309.4607077182663 310.09885575910806 89.45836503014233
  endloop
endfacet
facet normal 0.0 -1.7096324356202786e-12 -1.0
  outer loop
    vertex 309.4607077182663 310.09885575910806 89.45836503014233
    vertex 309.9121929802003 455.75788700581444 89.4583650298933
    vertex 309.9121929802003 310.1383556012764 89.45836503014226
  endloop
endfacet
facet normal 0.0 -1.7096324356202786e-12 -1.0
  outer loop
    vertex 303.9998387082077 301.53835560127635 89.45770297111164
    vertex 307.6605269303608 308.83835560127636 89.45836503014448
    vertex 307.46899216615697 308.4276079739231 89.45836503014519
  endloop
endfacet
facet normal 0.0 -1.7096324356202786e-12 -1.0
  outer loop
    vertex 303.9998387082077 301.53835560127635 89.45770297111164
    vertex 307.46899216615697 308.4276079739231 89.45836503014519
    vertex 307.3516928223686 307.9898408632103 89.45836503014594
  endloop
endfacet
facet normal 0.0 -1.7096324356202786e-12 -1.0
  outer loop
    vertex 303.9998387082077 301.53835560127635 89.45770297111164
    vertex 307.3516928223686 307.9898408632103 89.45836503014594
    vertex 307.31219298020034 307.5383556012763 89.45836503014671
  endloop
endfacet
facet normal 0.0 -1.7096324356202786e-12 -1.0
  outer loop
    vertex 303.9998387082077 301.53835560127635 89.45770297111164
    vertex 307.31219298020034 307.5383556012763 89.45836503014671
    vertex 307.3516928223686 307.0868703393423 89.45836503014748
  endloop
endfacet
facet normal 0.0 -1.7096324356202786e-12 -1.0
  outer loop
    vertex 303.9998387082077 301.53835560127635 89.45770297111164
    vertex 307.3516928223686 307.0868703393423 89.45836503014748
    vertex 307.46899216615697 306.6491032286296 89.45836503014823
  endloop
endfacet
facet normal 0.0 -1.7096324356202786e-12 -1.0
  outer loop
    vertex 303.9998387082077 301.53835560127635 89.45770297111164
    vertex 307.46899216615697 306.6491032286296 89.45836503014823
    vertex 307.6605269303608 306.23835560127634 89.45836503014893
  endloop
endfacet
facet normal 0.0 -1.7096324356202786e-12 -1.0
  outer loop
    vertex 303.9998387082077 301.53835560127635 89.45770297111164
    vertex 307.6605269303608 306.23835560127634 89.45836503014893
    vertex 307.920477428091 305.86710781609133 89.45836503014957
  endloop
endfacet
facet normal 0.0 -1.7096324356202786e-12 -1.0
  outer loop
    vertex 303.9998387082077 301.53835560127635 89.45770297111164
    vertex 307.920477428091 305.86710781609133 89.45836503014957
    vertex 308.24094519501534 305.546640049167 89.4583650301501
  endloop
endfacet
facet normal 0.0 -1.7096324356202786e-12 -1.0
  outer loop
    vertex 303.9998387082077 301.53835560127635 89.45770297111164
    vertex 308.24094519501534 305.546640049167 89.4583650301501
    vertex 308.61219298020035 305.2866895514368 89.45836503015056
  endloop
endfacet
facet normal 0.0 -1.7096324356202786e-12 -1.0
  outer loop
    vertex 303.9998387082077 301.53835560127635 89.45770297111164
    vertex 308.61219298020035 305.2866895514368 89.45836503015056
    vertex 309.0229406075536 305.095154787233 89.45836503015089
  endloop
endfacet
facet normal 0.0 -1.7096324356202786e-12 -1.0
  outer loop
    vertex 303.9998387082077 301.53835560127635 89.45770297111164
    vertex 309.0229406075536 305.095154787233 89.45836503015089
    vertex 309.4607077182663 304.9778554434446 89.45836503015109
  endloop
endfacet
facet normal 0.0 -1.7096324356202786e-12 -1.0
  outer loop
    vertex 303.9998387082077 301.53835560127635 89.45770297111164
    vertex 309.4607077182663 304.9778554434446 89.45836503015109
    vertex 309.9121929802003 304.9383556012764 89.45836503015114
  endloop
endfacet
facet normal 0.0 -1.7096324356202786e-12 -1.0
  outer loop
    vertex 303.9998387082077 301.53835560127635 89.45770297111164
    vertex 309.9121929802003 304.9383556012764 89.45836503015114
    vertex 317.9998387082076 301.53835560127635 89.45770297111164
  endloop
endfacet
facet normal 0.0 -1.0 1.7096324356202786e-12
  outer loop
    vertex 317.9998387082076 301.53835560127635 89.45770297111164
    vertex 303.9998387082077 301.53835560127806 90.45770297111164
    vertex 303.9998387082077 301.53835560127635 89.45770297111164
  endloop
endfacet
facet normal 0.0 -1.0 1.7096324356202786e-12
  outer loop
    vertex 303.9998387082077 301.53835560127806 90.45770297111164
    vertex 317.9998387082076 301.53835560127635 89.45770297111164
    vertex 315.9998387082076 301.53835560127806 90.45770297111164
  endloop
endfacet
facet normal 0.0 -1.0 1.7096324356202786e-12
  outer loop
    vertex 315.9998387082076 301.53835560127806 90.45770297111164
    vertex 317.9998387082076 301.53835560127635 89.45770297111164
    vertex 315.9998387082076 301.53835560127976 91.45770297111164
  endloop
endfacet
facet normal 0.0 -1.0 1.7096324356202786e-12
  outer loop
    vertex 315.9998387082076 301.53835560127976 91.45770297111164
    vertex 317.9998387082076 301.53835560127635 89.45770297111164
    vertex 317.9998387082076 301.53835560127976 91.45770297111164
  endloop
endfacet
facet normal -1.0 0.0 0.0
  outer loop
    vertex 303.9998387082077 301.53835560127806 90.45770297111164
    vertex 303.9998387082077 466.4578870058145 89.4577029708297
    vertex 303.9998387082077 301.53835560127635 89.45770297111164
  endloop
endfacet
facet normal -1.0 0.0 0.0
  outer loop
    vertex 303.9998387082077 466.4578870058145 89.4577029708297
    vertex 303.9998387082077 301.53835560127806 90.45770297111164
    vertex 303.9998387082077 464.4578870058162 90.45770297083311
  endloop
endfacet
facet normal -1.0 0.0 0.0
  outer loop
    vertex 303.9998387082077 466.4578870058145 89.4577029708297
    vertex 303.9998387082077 464.4578870058162 90.45770297083311
    vertex 303.9998387082077 466.4578870058179 91.45770297082969
  endloop
endfacet
facet normal -1.0 0.0 0.0
  outer loop
    vertex 303.9998387082077 466.4578870058179 91.45770297082969
    vertex 303.9998387082077 464.4578870058162 90.45770297083311
    vertex 303.9998387082077 464.4578870058179 91.45770297083311
  endloop
endfacet
facet normal 0.7071067811865476 -0.7071067811865476 1.2088926885635728e-12
  outer loop
    vertex 308.24094519501534 309.5300711533874 90.45836503014331
    vertex 307.920477428091 309.2096033864613 89.45836503014385
    vertex 308.24094519501534 309.5300711533857 89.45836503014331
  endloop
endfacet
facet normal 0.7071067811865476 -0.7071067811865476 1.2088926885635728e-12
  outer loop
    vertex 307.920477428091 309.2096033864613 89.45836503014385
    vertex 308.24094519501534 309.5300711533874 90.45836503014331
    vertex 307.920477428091 309.2096033864631 90.45836503014385
  endloop
endfacet
facet normal 0.0 1.0 -1.7096324356202786e-12
  outer loop
    vertex 317.9998387082076 466.4578870058179 91.45770297082969
    vertex 303.9998387082077 466.4578870058145 89.4577029708297
    vertex 303.9998387082077 466.4578870058179 91.45770297082969
  endloop
endfacet
facet normal 0.0 1.0 -1.7096324356202786e-12
  outer loop
    vertex 303.9998387082077 466.4578870058145 89.4577029708297
    vertex 317.9998387082076 466.4578870058179 91.45770297082969
    vertex 317.9998387082076 466.4578870058145 89.4577029708297
  endloop
endfacet
facet normal 1.0 0.0 0.0
  outer loop
    vertex 317.9998387082076 466.4578870058179 91.45770297082969
    vertex 317.9998387082076 301.53835560127635 89.45770297111164
    vertex 317.9998387082076 466.4578870058145 89.4577029708297
  endloop
endfacet
facet normal 1.0 0.0 0.0
  outer loop
    vertex 317.9998387082076 301.53835560127635 89.45770297111164
    vertex 317.9998387082076 466.4578870058179 91.45770297082969
    vertex 317.9998387082076 301.53835560127976 91.45770297111164
  endloop
endfacet
facet normal 0.0 1.7096324356202786e-12 1.0
  outer loop
    vertex 303.9998387082077 464.4578870058162 90.45770297083311
    vertex 308.61219298020035 460.60955305565574 90.458365029885
    vertex 315.9998387082076 464.4578870058162 90.45770297083311
  endloop
endfacet
facet normal 0.0 1.7096324356202786e-12 1.0
  outer loop
    vertex 308.61219298020035 460.60955305565574 90.458365029885
    vertex 303.9998387082077 464.4578870058162 90.45770297083311
    vertex 308.24094519501534 460.3496025579255 90.45836502988546
  endloop
endfacet
facet normal 0.0 1.7096324356202786e-12 1.0
  outer loop
    vertex 308.24094519501534 460.3496025579255 90.45836502988546
    vertex 303.9998387082077 464.4578870058162 90.45770297083311
    vertex 307.920477428091 460.0291347910011 90.458365029886
  endloop
endfacet
facet normal 0.0 1.7096324356202786e-12 1.0
  outer loop
    vertex 307.920477428091 460.0291347910011 90.458365029886
    vertex 303.9998387082077 464.4578870058162 90.45770297083311
    vertex 307.6605269303608 459.6578870058162 90.45836502988665
  endloop
endfacet
facet normal 0.0 1.7096324356202786e-12 1.0
  outer loop
    vertex 307.6605269303608 459.6578870058162 90.45836502988665
    vertex 303.9998387082077 464.4578870058162 90.45770297083311
    vertex 307.46899216615697 459.2471393784629 90.45836502988735
  endloop
endfacet
facet normal 0.0 1.7096324356202786e-12 1.0
  outer loop
    vertex 307.46899216615697 459.2471393784629 90.45836502988735
    vertex 303.9998387082077 464.4578870058162 90.45770297083311
    vertex 307.3516928223686 458.80937226775023 90.45836502988809
  endloop
endfacet
facet normal 0.0 1.7096324356202786e-12 1.0
  outer loop
    vertex 307.3516928223686 458.80937226775023 90.45836502988809
    vertex 303.9998387082077 464.4578870058162 90.45770297083311
    vertex 307.31219298020034 458.3578870058162 90.45836502988887
  endloop
endfacet
facet normal 0.0 1.7096324356202786e-12 1.0
  outer loop
    vertex 307.31219298020034 458.3578870058162 90.45836502988887
    vertex 303.9998387082077 464.4578870058162 90.45770297083311
    vertex 303.9998387082077 301.53835560127806 90.45770297111164
  endloop
endfacet
facet normal 0.0 1.7096324356202786e-12 1.0
  outer loop
    vertex 315.9998387082076 464.4578870058162 90.45770297083311
    vertex 308.61219298020035 460.60955305565574 90.458365029885
    vertex 309.0229406075536 460.8010878198595 90.45836502988467
  endloop
endfacet
facet normal 0.0 1.7096324356202786e-12 1.0
  outer loop
    vertex 315.9998387082076 464.4578870058162 90.45770297083311
    vertex 309.0229406075536 460.8010878198595 90.45836502988467
    vertex 309.4607077182663 460.91838716364794 90.45836502988449
  endloop
endfacet
facet normal 0.0 1.7096324356202786e-12 1.0
  outer loop
    vertex 315.9998387082076 464.4578870058162 90.45770297083311
    vertex 309.4607077182663 460.91838716364794 90.45836502988449
    vertex 309.9121929802003 460.9578870058162 90.45836502988442
  endloop
endfacet
facet normal 0.0 1.7096324356202786e-12 1.0
  outer loop
    vertex 307.31219298020034 458.3578870058162 90.45836502988887
    vertex 303.9998387082077 301.53835560127806 90.45770297111164
    vertex 307.3516928223686 457.9064017438822 90.45836502988963
  endloop
endfacet
facet normal 0.0 1.7096324356202786e-12 1.0
  outer loop
    vertex 307.3516928223686 457.9064017438822 90.45836502988963
    vertex 303.9998387082077 301.53835560127806 90.45770297111164
    vertex 307.46899216615697 457.4686346331694 90.45836502989037
  endloop
endfacet
facet normal 0.0 1.7096324356202786e-12 1.0
  outer loop
    vertex 307.46899216615697 457.4686346331694 90.45836502989037
    vertex 303.9998387082077 301.53835560127806 90.45770297111164
    vertex 307.6605269303608 457.05788700581616 90.45836502989108
  endloop
endfacet
facet normal 0.0 1.7096324356202786e-12 1.0
  outer loop
    vertex 307.6605269303608 457.05788700581616 90.45836502989108
    vertex 303.9998387082077 301.53835560127806 90.45770297111164
    vertex 307.920477428091 456.6866392206312 90.45836502989172
  endloop
endfacet
facet normal 0.0 1.7096324356202786e-12 1.0
  outer loop
    vertex 307.920477428091 456.6866392206312 90.45836502989172
    vertex 303.9998387082077 301.53835560127806 90.45770297111164
    vertex 308.24094519501534 456.36617145370684 90.45836502989228
  endloop
endfacet
facet normal 0.0 1.7096324356202786e-12 1.0
  outer loop
    vertex 308.24094519501534 456.36617145370684 90.45836502989228
    vertex 303.9998387082077 301.53835560127806 90.45770297111164
    vertex 308.61219298020035 456.1062209559766 90.45836502989272
  endloop
endfacet
facet normal 0.0 1.7096324356202786e-12 1.0
  outer loop
    vertex 308.61219298020035 456.1062209559766 90.45836502989272
    vertex 303.9998387082077 301.53835560127806 90.45770297111164
    vertex 309.0229406075536 455.91468619177283 90.45836502989305
  endloop
endfacet
facet normal 0.0 1.7096324356202786e-12 1.0
  outer loop
    vertex 309.0229406075536 455.91468619177283 90.45836502989305
    vertex 303.9998387082077 301.53835560127806 90.45770297111164
    vertex 309.4607077182663 455.7973868479844 90.45836502989324
  endloop
endfacet
facet normal 0.0 1.7096324356202786e-12 1.0
  outer loop
    vertex 309.4607077182663 455.7973868479844 90.45836502989324
    vertex 303.9998387082077 301.53835560127806 90.45770297111164
    vertex 309.9121929802003 455.7578870058162 90.45836502989332
  endloop
endfacet
facet normal 0.0 1.7096324356202786e-12 1.0
  outer loop
    vertex 309.9121929802003 455.7578870058162 90.45836502989332
    vertex 303.9998387082077 301.53835560127806 90.45770297111164
    vertex 307.6605269303608 308.83835560127807 90.45836503014449
  endloop
endfacet
facet normal 0.0 1.7096324356202786e-12 1.0
  outer loop
    vertex 309.9121929802003 455.7578870058162 90.45836502989332
    vertex 307.6605269303608 308.83835560127807 90.45836503014449
    vertex 307.920477428091 309.2096033864631 90.45836503014385
  endloop
endfacet
facet normal 0.0 1.7096324356202786e-12 1.0
  outer loop
    vertex 309.9121929802003 455.7578870058162 90.45836502989332
    vertex 307.920477428091 309.2096033864631 90.45836503014385
    vertex 308.24094519501534 309.5300711533874 90.45836503014331
  endloop
endfacet
facet normal 0.0 1.7096324356202786e-12 1.0
  outer loop
    vertex 309.9121929802003 455.7578870058162 90.45836502989332
    vertex 308.24094519501534 309.5300711533874 90.45836503014331
    vertex 308.61219298020035 309.79002165111757 90.45836503014286
  endloop
endfacet
facet normal 0.0 1.7096324356202786e-12 1.0
  outer loop
    vertex 309.9121929802003 455.7578870058162 90.45836502989332
    vertex 308.61219298020035 309.79002165111757 90.45836503014286
    vertex 309.0229406075536 309.9815564153214 90.45836503014253
  endloop
endfacet
facet normal 0.0 1.7096324356202786e-12 1.0
  outer loop
    vertex 309.9121929802003 455.7578870058162 90.45836502989332
    vertex 309.0229406075536 309.9815564153214 90.45836503014253
    vertex 309.4607077182663 310.09885575910977 90.45836503014233
  endloop
endfacet
facet normal 0.0 1.7096324356202786e-12 1.0
  outer loop
    vertex 309.9121929802003 455.7578870058162 90.45836502989332
    vertex 309.4607077182663 310.09885575910977 90.45836503014233
    vertex 309.9121929802003 310.1383556012781 90.45836503014228
  endloop
endfacet
facet normal 0.0 1.7096324356202786e-12 1.0
  outer loop
    vertex 307.6605269303608 308.83835560127807 90.45836503014449
    vertex 303.9998387082077 301.53835560127806 90.45770297111164
    vertex 307.46899216615697 308.4276079739248 90.45836503014519
  endloop
endfacet
facet normal 0.0 1.7096324356202786e-12 1.0
  outer loop
    vertex 307.46899216615697 308.4276079739248 90.45836503014519
    vertex 303.9998387082077 301.53835560127806 90.45770297111164
    vertex 307.3516928223686 307.98984086321207 90.45836503014594
  endloop
endfacet
facet normal 0.0 1.7096324356202786e-12 1.0
  outer loop
    vertex 307.3516928223686 307.98984086321207 90.45836503014594
    vertex 303.9998387082077 301.53835560127806 90.45770297111164
    vertex 307.31219298020034 307.53835560127806 90.45836503014671
  endloop
endfacet
facet normal 0.0 1.7096324356202786e-12 1.0
  outer loop
    vertex 307.31219298020034 307.53835560127806 90.45836503014671
    vertex 303.9998387082077 301.53835560127806 90.45770297111164
    vertex 307.3516928223686 307.086870339344 90.45836503014748
  endloop
endfacet
facet normal 0.0 1.7096324356202786e-12 1.0
  outer loop
    vertex 307.3516928223686 307.086870339344 90.45836503014748
    vertex 303.9998387082077 301.53835560127806 90.45770297111164
    vertex 307.46899216615697 306.6491032286313 90.45836503014823
  endloop
endfacet
facet normal 0.0 1.7096324356202786e-12 1.0
  outer loop
    vertex 307.46899216615697 306.6491032286313 90.45836503014823
    vertex 303.9998387082077 301.53835560127806 90.45770297111164
    vertex 307.6605269303608 306.23835560127804 90.45836503014894
  endloop
endfacet
facet normal 0.0 1.7096324356202786e-12 1.0
  outer loop
    vertex 307.6605269303608 306.23835560127804 90.45836503014894
    vertex 303.9998387082077 301.53835560127806 90.45770297111164
    vertex 307.920477428091 305.86710781609304 90.45836503014957
  endloop
endfacet
facet normal 0.0 1.7096324356202786e-12 1.0
  outer loop
    vertex 307.920477428091 305.86710781609304 90.45836503014957
    vertex 303.9998387082077 301.53835560127806 90.45770297111164
    vertex 308.24094519501534 305.54664004916873 90.4583650301501
  endloop
endfacet
facet normal 0.0 1.7096324356202786e-12 1.0
  outer loop
    vertex 308.24094519501534 305.54664004916873 90.4583650301501
    vertex 303.9998387082077 301.53835560127806 90.45770297111164
    vertex 308.61219298020035 305.2866895514385 90.45836503015056
  endloop
endfacet
facet normal 0.0 1.7096324356202786e-12 1.0
  outer loop
    vertex 308.61219298020035 305.2866895514385 90.45836503015056
    vertex 303.9998387082077 301.53835560127806 90.45770297111164
    vertex 309.0229406075536 305.0951547872347 90.45836503015089
  endloop
endfacet
facet normal 0.0 1.7096324356202786e-12 1.0
  outer loop
    vertex 309.0229406075536 305.0951547872347 90.45836503015089
    vertex 303.9998387082077 301.53835560127806 90.45770297111164
    vertex 309.4607077182663 304.9778554434463 90.45836503015109
  endloop
endfacet
facet normal 0.0 1.7096324356202786e-12 1.0
  outer loop
    vertex 309.4607077182663 304.9778554434463 90.45836503015109
    vertex 303.9998387082077 301.53835560127806 90.45770297111164
    vertex 309.9121929802003 304.9383556012781 90.45836503015116
  endloop
endfacet
facet normal 0.0 1.7096324356202786e-12 1.0
  outer loop
    vertex 315.9998387082076 464.4578870058162 90.45770297083311
    vertex 312.5121929802003 458.3578870058162 90.45836502988887
    vertex 315.9998387082076 301.53835560127806 90.45770297111164
  endloop
endfacet
facet normal 0.0 1.7096324356202786e-12 1.0
  outer loop
    vertex 312.5121929802003 458.3578870058162 90.45836502988887
    vertex 315.9998387082076 464.4578870058162 90.45770297083311
    vertex 312.47269313803207 458.80937226775023 90.45836502988809
  endloop
endfacet
facet normal 0.0 1.7096324356202786e-12 1.0
  outer loop
    vertex 312.47269313803207 458.80937226775023 90.45836502988809
    vertex 315.9998387082076 464.4578870058162 90.45770297083311
    vertex 312.3553937942437 459.2471393784629 90.45836502988735
  endloop
endfacet
facet normal 0.0 1.7096324356202786e-12 1.0
  outer loop
    vertex 312.3553937942437 459.2471393784629 90.45836502988735
    vertex 315.9998387082076 464.4578870058162 90.45770297083311
    vertex 312.1638590300399 459.6578870058162 90.45836502988665
  endloop
endfacet
facet normal 0.0 1.7096324356202786e-12 1.0
  outer loop
    vertex 312.1638590300399 459.6578870058162 90.45836502988665
    vertex 315.9998387082076 464.4578870058162 90.45770297083311
    vertex 311.90390853230963 460.0291347910011 90.458365029886
  endloop
endfacet
facet normal 0.0 1.7096324356202786e-12 1.0
  outer loop
    vertex 311.90390853230963 460.0291347910011 90.458365029886
    vertex 315.9998387082076 464.4578870058162 90.45770297083311
    vertex 311.5834407653853 460.3496025579255 90.45836502988546
  endloop
endfacet
facet normal 0.0 1.7096324356202786e-12 1.0
  outer loop
    vertex 311.5834407653853 460.3496025579255 90.45836502988546
    vertex 315.9998387082076 464.4578870058162 90.45770297083311
    vertex 311.2121929802003 460.60955305565574 90.458365029885
  endloop
endfacet
facet normal 0.0 1.7096324356202786e-12 1.0
  outer loop
    vertex 311.2121929802003 460.60955305565574 90.458365029885
    vertex 315.9998387082076 464.4578870058162 90.45770297083311
    vertex 310.8014453528471 460.8010878198595 90.45836502988467
  endloop
endfacet
facet normal 0.0 1.7096324356202786e-12 1.0
  outer loop
    vertex 310.8014453528471 460.8010878198595 90.45836502988467
    vertex 315.9998387082076 464.4578870058162 90.45770297083311
    vertex 310.3636782421343 460.91838716364794 90.45836502988449
  endloop
endfacet
facet normal 0.0 1.7096324356202786e-12 1.0
  outer loop
    vertex 310.3636782421343 460.91838716364794 90.45836502988449
    vertex 315.9998387082076 464.4578870058162 90.45770297083311
    vertex 309.9121929802003 460.9578870058162 90.45836502988442
  endloop
endfacet
facet normal 0.0 1.7096324356202786e-12 1.0
  outer loop
    vertex 315.9998387082076 301.53835560127806 90.45770297111164
    vertex 312.5121929802003 458.3578870058162 90.45836502988887
    vertex 312.47269313803207 457.9064017438822 90.45836502988963
  endloop
endfacet
facet normal 0.0 1.7096324356202786e-12 1.0
  outer loop
    vertex 315.9998387082076 301.53835560127806 90.45770297111164
    vertex 312.47269313803207 457.9064017438822 90.45836502988963
    vertex 312.3553937942437 457.4686346331694 90.45836502989037
  endloop
endfacet
facet normal 0.0 1.7096324356202786e-12 1.0
  outer loop
    vertex 315.9998387082076 301.53835560127806 90.45770297111164
    vertex 312.3553937942437 457.4686346331694 90.45836502989037
    vertex 312.1638590300399 457.05788700581616 90.45836502989108
  endloop
endfacet
facet normal 0.0 1.7096324356202786e-12 1.0
  outer loop
    vertex 315.9998387082076 301.53835560127806 90.45770297111164
    vertex 312.1638590300399 457.05788700581616 90.45836502989108
    vertex 311.90390853230963 456.6866392206312 90.45836502989172
  endloop
endfacet
facet normal 0.0 1.7096324356202786e-12 1.0
  outer loop
    vertex 315.9998387082076 301.53835560127806 90.45770297111164
    vertex 311.90390853230963 456.6866392206312 90.45836502989172
    vertex 311.5834407653853 456.36617145370684 90.45836502989228
  endloop
endfacet
facet normal 0.0 1.7096324356202786e-12 1.0
  outer loop
    vertex 315.9998387082076 301.53835560127806 90.45770297111164
    vertex 311.5834407653853 456.36617145370684 90.45836502989228
    vertex 311.2121929802003 456.1062209559766 90.45836502989272
  endloop
endfacet
facet normal 0.0 1.7096324356202786e-12 1.0
  outer loop
    vertex 315.9998387082076 301.53835560127806 90.45770297111164
    vertex 311.2121929802003 456.1062209559766 90.45836502989272
    vertex 310.8014453528471 455.91468619177283 90.45836502989305
  endloop
endfacet
facet normal 0.0 1.7096324356202786e-12 1.0
  outer loop
    vertex 315.9998387082076 301.53835560127806 90.45770297111164
    vertex 310.8014453528471 455.91468619177283 90.45836502989305
    vertex 310.3636782421343 455.7973868479844 90.45836502989324
  endloop
endfacet
facet normal 0.0 1.7096324356202786e-12 1.0
  outer loop
    vertex 315.9998387082076 301.53835560127806 90.45770297111164
    vertex 310.3636782421343 455.7973868479844 90.45836502989324
    vertex 309.9121929802003 455.7578870058162 90.45836502989332
  endloop
endfacet
facet normal 0.0 1.7096324356202786e-12 1.0
  outer loop
    vertex 315.9998387082076 301.53835560127806 90.45770297111164
    vertex 309.9121929802003 455.7578870058162 90.45836502989332
    vertex 312.1638590300399 308.83835560127807 90.45836503014449
  endloop
endfacet
facet normal 0.0 1.7096324356202786e-12 1.0
  outer loop
    vertex 312.1638590300399 308.83835560127807 90.45836503014449
    vertex 309.9121929802003 455.7578870058162 90.45836502989332
    vertex 311.90390853230963 309.2096033864631 90.45836503014385
  endloop
endfacet
facet normal 0.0 1.7096324356202786e-12 1.0
  outer loop
    vertex 311.90390853230963 309.2096033864631 90.45836503014385
    vertex 309.9121929802003 455.7578870058162 90.45836502989332
    vertex 311.5834407653853 309.5300711533874 90.45836503014331
  endloop
endfacet
facet normal 0.0 1.7096324356202786e-12 1.0
  outer loop
    vertex 311.5834407653853 309.5300711533874 90.45836503014331
    vertex 309.9121929802003 455.7578870058162 90.45836502989332
    vertex 311.2121929802003 309.79002165111757 90.45836503014286
  endloop
endfacet
facet normal 0.0 1.7096324356202786e-12 1.0
  outer loop
    vertex 311.2121929802003 309.79002165111757 90.45836503014286
    vertex 309.9121929802003 455.7578870058162 90.45836502989332
    vertex 310.8014453528471 309.9815564153214 90.45836503014253
  endloop
endfacet
facet normal 0.0 1.7096324356202786e-12 1.0
  outer loop
    vertex 310.8014453528471 309.9815564153214 90.45836503014253
    vertex 309.9121929802003 455.7578870058162 90.45836502989332
    vertex 310.3636782421343 310.09885575910977 90.45836503014233
  endloop
endfacet
facet normal 0.0 1.7096324356202786e-12 1.0
  outer loop
    vertex 310.3636782421343 310.09885575910977 90.45836503014233
    vertex 309.9121929802003 455.7578870058162 90.45836502989332
    vertex 309.9121929802003 310.1383556012781 90.45836503014228
  endloop
endfacet
facet normal 0.0 1.7096324356202786e-12 1.0
  outer loop
    vertex 315.9998387082076 301.53835560127806 90.45770297111164
    vertex 312.1638590300399 308.83835560127807 90.45836503014449
    vertex 312.3553937942437 308.4276079739248 90.45836503014519
  endloop
endfacet
facet normal 0.0 1.7096324356202786e-12 1.0
  outer loop
    vertex 315.9998387082076 301.53835560127806 90.45770297111164
    vertex 312.3553937942437 308.4276079739248 90.45836503014519
    vertex 312.47269313803207 307.98984086321207 90.45836503014594
  endloop
endfacet
facet normal 0.0 1.7096324356202786e-12 1.0
  outer loop
    vertex 315.9998387082076 301.53835560127806 90.45770297111164
    vertex 312.47269313803207 307.98984086321207 90.45836503014594
    vertex 312.5121929802003 307.53835560127806 90.45836503014671
  endloop
endfacet
facet normal 0.0 1.7096324356202786e-12 1.0
  outer loop
    vertex 315.9998387082076 301.53835560127806 90.45770297111164
    vertex 312.5121929802003 307.53835560127806 90.45836503014671
    vertex 312.47269313803207 307.086870339344 90.45836503014748
  endloop
endfacet
facet normal 0.0 1.7096324356202786e-12 1.0
  outer loop
    vertex 315.9998387082076 301.53835560127806 90.45770297111164
    vertex 312.47269313803207 307.086870339344 90.45836503014748
    vertex 312.3553937942437 306.6491032286313 90.45836503014823
  endloop
endfacet
facet normal 0.0 1.7096324356202786e-12 1.0
  outer loop
    vertex 315.9998387082076 301.53835560127806 90.45770297111164
    vertex 312.3553937942437 306.6491032286313 90.45836503014823
    vertex 312.1638590300399 306.23835560127804 90.45836503014894
  endloop
endfacet
facet normal 0.0 1.7096324356202786e-12 1.0
  outer loop
    vertex 315.9998387082076 301.53835560127806 90.45770297111164
    vertex 312.1638590300399 306.23835560127804 90.45836503014894
    vertex 311.90390853230963 305.86710781609304 90.45836503014957
  endloop
endfacet
facet normal 0.0 1.7096324356202786e-12 1.0
  outer loop
    vertex 315.9998387082076 301.53835560127806 90.45770297111164
    vertex 311.90390853230963 305.86710781609304 90.45836503014957
    vertex 311.5834407653853 305.54664004916873 90.4583650301501
  endloop
endfacet
facet normal 0.0 1.7096324356202786e-12 1.0
  outer loop
    vertex 315.9998387082076 301.53835560127806 90.45770297111164
    vertex 311.5834407653853 305.54664004916873 90.4583650301501
    vertex 311.2121929802003 305.2866895514385 90.45836503015056
  endloop
endfacet
facet normal 0.0 1.7096324356202786e-12 1.0
  outer loop
    vertex 315.9998387082076 301.53835560127806 90.45770297111164
    vertex 311.2121929802003 305.2866895514385 90.45836503015056
    vertex 310.8014453528471 305.0951547872347 90.45836503015089
  endloop
endfacet
facet normal 0.0 1.7096324356202786e-12 1.0
  outer loop
    vertex 315.9998387082076 301.53835560127806 90.45770297111164
    vertex 310.8014453528471 305.0951547872347 90.45836503015089
    vertex 310.3636782421343 304.9778554434463 90.45836503015109
  endloop
endfacet
facet normal 0.0 1.7096324356202786e-12 1.0
  outer loop
    vertex 315.9998387082076 301.53835560127806 90.45770297111164
    vertex 310.3636782421343 304.9778554434463 90.45836503015109
    vertex 309.9121929802003 304.9383556012781 90.45836503015116
  endloop
endfacet
facet normal 0.0 1.7096324356202786e-12 1.0
  outer loop
    vertex 315.9998387082076 301.53835560127806 90.45770297111164
    vertex 309.9121929802003 304.9383556012781 90.45836503015116
    vertex 303.9998387082077 301.53835560127806 90.45770297111164
  endloop
endfacet
facet normal -1.0 0.0 0.0
  outer loop
    vertex 315.9998387082076 301.53835560127976 91.45770297111164
    vertex 315.9998387082076 464.4578870058162 90.45770297083311
    vertex 315.9998387082076 301.53835560127806 90.45770297111164
  endloop
endfacet
facet normal -1.0 0.0 0.0
  outer loop
    vertex 315.9998387082076 464.4578870058162 90.45770297083311
    vertex 315.9998387082076 301.53835560127976 91.45770297111164
    vertex 315.9998387082076 464.4578870058179 91.45770297083311
  endloop
endfacet
facet normal 0.0 -1.0 1.7096324356202786e-12
  outer loop
    vertex 315.9998387082076 464.4578870058162 90.45770297083311
    vertex 303.9998387082077 464.4578870058179 91.45770297083311
    vertex 303.9998387082077 464.4578870058162 90.45770297083311
  endloop
endfacet
facet normal 0.0 -1.0 1.7096324356202786e-12
  outer loop
    vertex 303.9998387082077 464.4578870058179 91.45770297083311
    vertex 315.9998387082076 464.4578870058162 90.45770297083311
    vertex 315.9998387082076 464.4578870058179 91.45770297083311
  endloop
endfacet
facet normal 0.0 1.7096324356202786e-12 1.0
  outer loop
    vertex 303.9998387082077 464.4578870058179 91.45770297083311
    vertex 317.9998387082076 466.4578870058179 91.45770297082969
    vertex 303.9998387082077 466.4578870058179 91.45770297082969
  endloop
endfacet
facet normal 0.0 1.7096324356202786e-12 1.0
  outer loop
    vertex 317.9998387082076 466.4578870058179 91.45770297082969
    vertex 303.9998387082077 464.4578870058179 91.45770297083311
    vertex 315.9998387082076 464.4578870058179 91.45770297083311
  endloop
endfacet
facet normal 0.0 1.7096324356202786e-12 1.0
  outer loop
    vertex 317.9998387082076 466.4578870058179 91.45770297082969
    vertex 315.9998387082076 464.4578870058179 91.45770297083311
    vertex 317.9998387082076 301.53835560127976 91.45770297111164
  endloop
endfacet
facet normal 0.0 1.7096324356202786e-12 1.0
  outer loop
    vertex 317.9998387082076 301.53835560127976 91.45770297111164
    vertex 315.9998387082076 464.4578870058179 91.45770297083311
    vertex 315.9998387082076 301.53835560127976 91.45770297111164
  endloop
endfacet
facet normal -0.4226182617407244 0.9063077870366385 -1.549453189373073e-12
  outer loop
    vertex 311.2121929802003 456.1062209559766 90.45836502989272
    vertex 310.8014453528471 455.9146861917711 89.45836502989305
    vertex 310.8014453528471 455.91468619177283 90.45836502989305
  endloop
endfacet
facet normal -0.4226182617407244 0.9063077870366385 -1.549453189373073e-12
  outer loop
    vertex 310.8014453528471 455.9146861917711 89.45836502989305
    vertex 311.2121929802003 456.1062209559766 90.45836502989272
    vertex 311.2121929802003 456.1062209559749 89.45836502989272
  endloop
endfacet
facet normal 0.08715574274765742 0.9961946980917458 -1.7031267680505994e-12
  outer loop
    vertex 309.9121929802003 455.7578870058162 90.45836502989332
    vertex 309.4607077182663 455.7973868479827 89.45836502989324
    vertex 309.4607077182663 455.7973868479844 90.45836502989324
  endloop
endfacet
facet normal 0.08715574274765742 0.9961946980917458 -1.7031267680505994e-12
  outer loop
    vertex 309.4607077182663 455.7973868479827 89.45836502989324
    vertex 309.9121929802003 455.7578870058162 90.45836502989332
    vertex 309.9121929802003 455.75788700581444 89.4583650298933
  endloop
endfacet
facet normal -0.25881904510249415 0.9659258262890756 -1.6513739002175062e-12
  outer loop
    vertex 310.8014453528471 455.91468619177283 90.45836502989305
    vertex 310.3636782421343 455.7973868479827 89.45836502989324
    vertex 310.3636782421343 455.7973868479844 90.45836502989324
  endloop
endfacet
facet normal -0.25881904510249415 0.9659258262890756 -1.6513739002175062e-12
  outer loop
    vertex 310.3636782421343 455.7973868479827 89.45836502989324
    vertex 310.8014453528471 455.91468619177283 90.45836502989305
    vertex 310.8014453528471 455.9146861917711 89.45836502989305
  endloop
endfacet
facet normal 0.2588190451025439 0.9659258262890622 -1.6513739002174834e-12
  outer loop
    vertex 309.4607077182663 455.7973868479844 90.45836502989324
    vertex 309.0229406075536 455.9146861917711 89.45836502989305
    vertex 309.0229406075536 455.91468619177283 90.45836502989305
  endloop
endfacet
facet normal 0.2588190451025439 0.9659258262890622 -1.6513739002174834e-12
  outer loop
    vertex 309.0229406075536 455.9146861917711 89.45836502989305
    vertex 309.4607077182663 455.7973868479844 90.45836502989324
    vertex 309.4607077182663 455.7973868479827 89.45836502989324
  endloop
endfacet
facet normal -0.08715574274765742 0.9961946980917458 -1.7031267680505994e-12
  outer loop
    vertex 310.3636782421343 455.7973868479844 90.45836502989324
    vertex 309.9121929802003 455.75788700581444 89.4583650298933
    vertex 309.9121929802003 455.7578870058162 90.45836502989332
  endloop
endfacet
facet normal -0.08715574274765742 0.9961946980917458 -1.7031267680505994e-12
  outer loop
    vertex 309.9121929802003 455.75788700581444 89.4583650298933
    vertex 310.3636782421343 455.7973868479844 90.45836502989324
    vertex 310.3636782421343 455.7973868479827 89.45836502989324
  endloop
endfacet
facet normal -0.9063077870366594 -0.42261826174067973 7.225298125033462e-13
  outer loop
    vertex 312.3553937942437 308.4276079739248 90.45836503014519
    vertex 312.1638590300399 308.83835560127636 89.45836503014448
    vertex 312.3553937942437 308.4276079739231 89.45836503014519
  endloop
endfacet
facet normal -0.9063077870366594 -0.42261826174067973 7.225298125033462e-13
  outer loop
    vertex 312.1638590300399 308.83835560127636 89.45836503014448
    vertex 312.3553937942437 308.4276079739248 90.45836503014519
    vertex 312.1638590300399 308.83835560127807 90.45836503014449
  endloop
endfacet
facet normal 0.42261826174066075 -0.906307787036668 1.549445265027104e-12
  outer loop
    vertex 309.0229406075536 309.9815564153197 89.45836503014253
    vertex 308.61219298020035 309.79002165111757 90.45836503014286
    vertex 308.61219298020035 309.79002165111586 89.45836503014286
  endloop
endfacet
facet normal 0.42261826174066075 -0.906307787036668 1.549445265027104e-12
  outer loop
    vertex 308.61219298020035 309.79002165111757 90.45836503014286
    vertex 309.0229406075536 309.9815564153197 89.45836503014253
    vertex 309.0229406075536 309.9815564153214 90.45836503014253
  endloop
endfacet
facet normal 0.08715574274764508 -0.9961946980917467 1.7031289456197455e-12
  outer loop
    vertex 309.9121929802003 310.1383556012764 89.45836503014226
    vertex 309.4607077182663 310.09885575910977 90.45836503014233
    vertex 309.4607077182663 310.09885575910806 89.45836503014233
  endloop
endfacet
facet normal 0.08715574274764508 -0.9961946980917467 1.7031289456197455e-12
  outer loop
    vertex 309.4607077182663 310.09885575910977 90.45836503014233
    vertex 309.9121929802003 310.1383556012764 89.45836503014226
    vertex 309.9121929802003 310.1383556012781 90.45836503014228
  endloop
endfacet
facet normal -0.5735764363510626 -0.8191520442889804 1.4004489046210995e-12
  outer loop
    vertex 311.5834407653853 309.5300711533857 89.45836503014331
    vertex 311.2121929802003 309.79002165111757 90.45836503014286
    vertex 311.2121929802003 309.79002165111586 89.45836503014286
  endloop
endfacet
facet normal -0.5735764363510626 -0.8191520442889804 1.4004489046210995e-12
  outer loop
    vertex 311.2121929802003 309.79002165111757 90.45836503014286
    vertex 311.5834407653853 309.5300711533857 89.45836503014331
    vertex 311.5834407653853 309.5300711533874 90.45836503014331
  endloop
endfacet
facet normal 0.08715574274764507 0.9961946980917467 -1.7031245904814561e-12
  outer loop
    vertex 309.9121929802003 304.9383556012781 90.45836503015116
    vertex 309.4607077182663 304.9778554434446 89.45836503015109
    vertex 309.4607077182663 304.9778554434463 90.45836503015109
  endloop
endfacet
facet normal 0.08715574274764507 0.9961946980917467 -1.7031245904814561e-12
  outer loop
    vertex 309.4607077182663 304.9778554434446 89.45836503015109
    vertex 309.9121929802003 304.9383556012781 90.45836503015116
    vertex 309.9121929802003 304.9383556012764 89.45836503015114
  endloop
endfacet
facet normal -0.7071067811865476 0.7071067811865476 -1.2088926885635728e-12
  outer loop
    vertex 311.5834407653853 305.54664004916873 90.4583650301501
    vertex 311.90390853230963 305.86710781609133 89.45836503014957
    vertex 311.5834407653853 305.546640049167 89.4583650301501
  endloop
endfacet
facet normal -0.7071067811865476 0.7071067811865476 -1.2088926885635728e-12
  outer loop
    vertex 311.90390853230963 305.86710781609133 89.45836503014957
    vertex 311.5834407653853 305.54664004916873 90.4583650301501
    vertex 311.90390853230963 305.86710781609304 90.45836503014957
  endloop
endfacet
facet normal -0.7071067811865476 -0.7071067811865476 1.2088926885635728e-12
  outer loop
    vertex 311.90390853230963 309.2096033864631 90.45836503014385
    vertex 311.5834407653853 309.5300711533857 89.45836503014331
    vertex 311.90390853230963 309.2096033864613 89.45836503014385
  endloop
endfacet
facet normal -0.7071067811865476 -0.7071067811865476 1.2088926885635728e-12
  outer loop
    vertex 311.5834407653853 309.5300711533857 89.45836503014331
    vertex 311.90390853230963 309.2096033864631 90.45836503014385
    vertex 311.5834407653853 309.5300711533874 90.45836503014331
  endloop
endfacet
facet normal -0.08715574274764507 -0.9961946980917467 1.7031289456197455e-12
  outer loop
    vertex 310.3636782421343 310.09885575910806 89.45836503014233
    vertex 309.9121929802003 310.1383556012781 90.45836503014228
    vertex 309.9121929802003 310.1383556012764 89.45836503014226
  endloop
endfacet
facet normal -0.08715574274764507 -0.9961946980917467 1.7031289456197455e-12
  outer loop
    vertex 309.9121929802003 310.1383556012781 90.45836503014228
    vertex 310.3636782421343 310.09885575910806 89.45836503014233
    vertex 310.3636782421343 310.09885575910977 90.45836503014233
  endloop
endfacet
facet normal 0.5735764363510626 -0.8191520442889804 1.4004489046210998e-12
  outer loop
    vertex 308.61219298020035 309.79002165111586 89.45836503014286
    vertex 308.24094519501534 309.5300711533874 90.45836503014331
    vertex 308.24094519501534 309.5300711533857 89.45836503014331
  endloop
endfacet
facet normal 0.5735764363510626 -0.8191520442889804 1.4004489046210998e-12
  outer loop
    vertex 308.24094519501534 309.5300711533874 90.45836503014331
    vertex 308.61219298020035 309.79002165111586 89.45836503014286
    vertex 308.61219298020035 309.79002165111757 90.45836503014286
  endloop
endfacet
facet normal -0.5735764363510626 0.8191520442889804 -1.4004489046210998e-12
  outer loop
    vertex 311.5834407653853 305.54664004916873 90.4583650301501
    vertex 311.2121929802003 305.2866895514368 89.45836503015056
    vertex 311.2121929802003 305.2866895514385 90.45836503015056
  endloop
endfacet
facet normal -0.5735764363510626 0.8191520442889804 -1.4004489046210998e-12
  outer loop
    vertex 311.2121929802003 305.2866895514368 89.45836503015056
    vertex 311.5834407653853 305.54664004916873 90.4583650301501
    vertex 311.5834407653853 305.546640049167 89.4583650301501
  endloop
endfacet
facet normal -0.9063077870366594 0.42261826174067973 -7.225139638113071e-13
  outer loop
    vertex 312.1638590300399 306.23835560127804 90.45836503014894
    vertex 312.3553937942437 306.6491032286296 89.45836503014823
    vertex 312.1638590300399 306.23835560127634 89.45836503014893
  endloop
endfacet
facet normal -0.9063077870366594 0.42261826174067973 -7.225139638113071e-13
  outer loop
    vertex 312.3553937942437 306.6491032286296 89.45836503014823
    vertex 312.1638590300399 306.23835560127804 90.45836503014894
    vertex 312.3553937942437 306.6491032286313 90.45836503014823
  endloop
endfacet
facet normal -0.42261826174069883 0.9063077870366504 -1.5494531893730934e-12
  outer loop
    vertex 311.2121929802003 305.2866895514385 90.45836503015056
    vertex 310.8014453528471 305.095154787233 89.45836503015089
    vertex 310.8014453528471 305.0951547872347 90.45836503015089
  endloop
endfacet
facet normal -0.42261826174069883 0.9063077870366504 -1.5494531893730934e-12
  outer loop
    vertex 310.8014453528471 305.095154787233 89.45836503015089
    vertex 311.2121929802003 305.2866895514385 90.45836503015056
    vertex 311.2121929802003 305.2866895514368 89.45836503015056
  endloop
endfacet
facet normal -0.9659258262890611 0.25881904510254805 -4.4248965727319997e-13
  outer loop
    vertex 312.3553937942437 306.6491032286313 90.45836503014823
    vertex 312.47269313803207 307.0868703393423 89.45836503014748
    vertex 312.3553937942437 306.6491032286296 89.45836503014823
  endloop
endfacet
facet normal -0.9659258262890611 0.25881904510254805 -4.4248965727319997e-13
  outer loop
    vertex 312.47269313803207 307.0868703393423 89.45836503014748
    vertex 312.3553937942437 306.6491032286313 90.45836503014823
    vertex 312.47269313803207 307.086870339344 90.45836503014748
  endloop
endfacet
facet normal -0.8191520442889804 0.5735764363510626 -9.806048798932666e-13
  outer loop
    vertex 311.90390853230963 305.86710781609304 90.45836503014957
    vertex 312.1638590300399 306.23835560127634 89.45836503014893
    vertex 311.90390853230963 305.86710781609133 89.45836503014957
  endloop
endfacet
facet normal -0.8191520442889804 0.5735764363510626 -9.806048798932666e-13
  outer loop
    vertex 312.1638590300399 306.23835560127634 89.45836503014893
    vertex 311.90390853230963 305.86710781609304 90.45836503014957
    vertex 312.1638590300399 306.23835560127804 90.45836503014894
  endloop
endfacet
facet normal 0.2588190451025729 -0.9659258262890543 1.651378123027086e-12
  outer loop
    vertex 309.4607077182663 310.09885575910806 89.45836503014233
    vertex 309.0229406075536 309.9815564153214 90.45836503014253
    vertex 309.0229406075536 309.9815564153197 89.45836503014253
  endloop
endfacet
facet normal 0.2588190451025729 -0.9659258262890543 1.651378123027086e-12
  outer loop
    vertex 309.0229406075536 309.9815564153214 90.45836503014253
    vertex 309.4607077182663 310.09885575910806 89.45836503014233
    vertex 309.4607077182663 310.09885575910977 90.45836503014233
  endloop
endfacet
facet normal -0.8191520442889804 -0.5735764363510626 9.80604879893267e-13
  outer loop
    vertex 312.1638590300399 308.83835560127807 90.45836503014449
    vertex 311.90390853230963 309.2096033864613 89.45836503014385
    vertex 312.1638590300399 308.83835560127636 89.45836503014448
  endloop
endfacet
facet normal -0.8191520442889804 -0.5735764363510626 9.80604879893267e-13
  outer loop
    vertex 311.90390853230963 309.2096033864613 89.45836503014385
    vertex 312.1638590300399 308.83835560127807 90.45836503014449
    vertex 311.90390853230963 309.2096033864631 90.45836503014385
  endloop
endfacet
facet normal -0.9961946980917424 0.08715574274769448 -1.490064623211801e-13
  outer loop
    vertex 312.47269313803207 307.086870339344 90.45836503014748
    vertex 312.5121929802003 307.5383556012763 89.45836503014671
    vertex 312.47269313803207 307.0868703393423 89.45836503014748
  endloop
endfacet
facet normal -0.9961946980917424 0.08715574274769448 -1.490064623211801e-13
  outer loop
    vertex 312.5121929802003 307.5383556012763 89.45836503014671
    vertex 312.47269313803207 307.086870339344 90.45836503014748
    vertex 312.5121929802003 307.53835560127806 90.45836503014671
  endloop
endfacet
facet normal -0.42261826174069883 -0.9063077870366504 1.5494531893730934e-12
  outer loop
    vertex 311.2121929802003 309.79002165111586 89.45836503014286
    vertex 310.8014453528471 309.9815564153214 90.45836503014253
    vertex 310.8014453528471 309.9815564153197 89.45836503014253
  endloop
endfacet
facet normal -0.42261826174069883 -0.9063077870366504 1.5494531893730934e-12
  outer loop
    vertex 310.8014453528471 309.9815564153214 90.45836503014253
    vertex 311.2121929802003 309.79002165111586 89.45836503014286
    vertex 311.2121929802003 309.79002165111757 90.45836503014286
  endloop
endfacet
facet normal -0.2588190451025232 -0.9659258262890678 1.651382345836725e-12
  outer loop
    vertex 310.8014453528471 309.9815564153197 89.45836503014253
    vertex 310.3636782421343 310.09885575910977 90.45836503014233
    vertex 310.3636782421343 310.09885575910806 89.45836503014233
  endloop
endfacet
facet normal -0.2588190451025232 -0.9659258262890678 1.651382345836725e-12
  outer loop
    vertex 310.3636782421343 310.09885575910977 90.45836503014233
    vertex 310.8014453528471 309.9815564153197 89.45836503014253
    vertex 310.8014453528471 309.9815564153214 90.45836503014253
  endloop
endfacet
facet normal -0.9659258262890611 -0.25881904510254805 4.4248121165396795e-13
  outer loop
    vertex 312.47269313803207 307.98984086321207 90.45836503014594
    vertex 312.3553937942437 308.4276079739231 89.45836503014519
    vertex 312.47269313803207 307.9898408632103 89.45836503014594
  endloop
endfacet
facet normal -0.9659258262890611 -0.25881904510254805 4.4248121165396795e-13
  outer loop
    vertex 312.3553937942437 308.4276079739231 89.45836503014519
    vertex 312.47269313803207 307.98984086321207 90.45836503014594
    vertex 312.3553937942437 308.4276079739248 90.45836503014519
  endloop
endfacet
facet normal -0.9961946980917424 -0.08715574274769447 1.4900210718289057e-13
  outer loop
    vertex 312.5121929802003 307.53835560127806 90.45836503014671
    vertex 312.47269313803207 307.9898408632103 89.45836503014594
    vertex 312.5121929802003 307.5383556012763 89.45836503014671
  endloop
endfacet
facet normal -0.9961946980917424 -0.08715574274769447 1.4900210718289057e-13
  outer loop
    vertex 312.47269313803207 307.9898408632103 89.45836503014594
    vertex 312.5121929802003 307.53835560127806 90.45836503014671
    vertex 312.47269313803207 307.98984086321207 90.45836503014594
  endloop
endfacet
facet normal -0.2588190451025232 0.9659258262890678 -1.651382345836725e-12
  outer loop
    vertex 310.8014453528471 305.0951547872347 90.45836503015089
    vertex 310.3636782421343 304.9778554434446 89.45836503015109
    vertex 310.3636782421343 304.9778554434463 90.45836503015109
  endloop
endfacet
facet normal -0.2588190451025232 0.9659258262890678 -1.651382345836725e-12
  outer loop
    vertex 310.3636782421343 304.9778554434446 89.45836503015109
    vertex 310.8014453528471 305.0951547872347 90.45836503015089
    vertex 310.8014453528471 305.095154787233 89.45836503015089
  endloop
endfacet
facet normal -0.08715574274764508 0.9961946980917467 -1.7031245904814561e-12
  outer loop
    vertex 310.3636782421343 304.9778554434463 90.45836503015109
    vertex 309.9121929802003 304.9383556012764 89.45836503015114
    vertex 309.9121929802003 304.9383556012781 90.45836503015116
  endloop
endfacet
facet normal -0.08715574274764508 0.9961946980917467 -1.7031245904814561e-12
  outer loop
    vertex 309.9121929802003 304.9383556012764 89.45836503015114
    vertex 310.3636782421343 304.9778554434463 90.45836503015109
    vertex 310.3636782421343 304.9778554434446 89.45836503015109
  endloop
endfacet
facet normal 0.9063077870366594 0.42261826174067973 -7.225298125033461e-13
  outer loop
    vertex 307.46899216615697 306.6491032286313 90.45836503014823
    vertex 307.6605269303608 306.23835560127634 89.45836503014893
    vertex 307.46899216615697 306.6491032286296 89.45836503014823
  endloop
endfacet
facet normal 0.9063077870366594 0.42261826174067973 -7.225298125033461e-13
  outer loop
    vertex 307.6605269303608 306.23835560127634 89.45836503014893
    vertex 307.46899216615697 306.6491032286313 90.45836503014823
    vertex 307.6605269303608 306.23835560127804 90.45836503014894
  endloop
endfacet
facet normal 0.9659258262890611 0.25881904510254805 -4.4248121165396795e-13
  outer loop
    vertex 307.3516928223686 307.086870339344 90.45836503014748
    vertex 307.46899216615697 306.6491032286296 89.45836503014823
    vertex 307.3516928223686 307.0868703393423 89.45836503014748
  endloop
endfacet
facet normal 0.9659258262890611 0.25881904510254805 -4.4248121165396795e-13
  outer loop
    vertex 307.46899216615697 306.6491032286296 89.45836503014823
    vertex 307.3516928223686 307.086870339344 90.45836503014748
    vertex 307.46899216615697 306.6491032286313 90.45836503014823
  endloop
endfacet
facet normal 0.8191520442889804 0.5735764363510626 -9.806048798932668e-13
  outer loop
    vertex 307.6605269303608 306.23835560127804 90.45836503014894
    vertex 307.920477428091 305.86710781609133 89.45836503014957
    vertex 307.6605269303608 306.23835560127634 89.45836503014893
  endloop
endfacet
facet normal 0.8191520442889804 0.5735764363510626 -9.806048798932668e-13
  outer loop
    vertex 307.920477428091 305.86710781609133 89.45836503014957
    vertex 307.6605269303608 306.23835560127804 90.45836503014894
    vertex 307.920477428091 305.86710781609304 90.45836503014957
  endloop
endfacet
facet normal 0.9961946980917511 0.08715574274759567 -1.4900428475186642e-13
  outer loop
    vertex 307.31219298020034 307.53835560127806 90.45836503014671
    vertex 307.3516928223686 307.0868703393423 89.45836503014748
    vertex 307.31219298020034 307.5383556012763 89.45836503014671
  endloop
endfacet
facet normal 0.9961946980917511 0.08715574274759567 -1.4900428475186642e-13
  outer loop
    vertex 307.3516928223686 307.0868703393423 89.45836503014748
    vertex 307.31219298020034 307.53835560127806 90.45836503014671
    vertex 307.3516928223686 307.086870339344 90.45836503014748
  endloop
endfacet
endsolid basalt
